<?xml version="1.0" encoding="UTF-8"?>
<svg version="1.1" xmlns="http://www.w3.org/2000/svg" width="192" height="192">
<path d="M0 0 C0.70253906 0.52851563 1.40507813 1.05703125 2.12890625 1.6015625 C2.12890625 2.2615625 2.12890625 2.9215625 2.12890625 3.6015625 C3.11890625 3.9315625 4.10890625 4.2615625 5.12890625 4.6015625 C5.12890625 5.5915625 5.12890625 6.5815625 5.12890625 7.6015625 C5.78890625 7.6015625 6.44890625 7.6015625 7.12890625 7.6015625 C10.57826242 11.87876415 10.79523355 16.32032909 11.12890625 21.6015625 C12.44890625 21.6015625 13.76890625 21.6015625 15.12890625 21.6015625 C15.12890625 20.9415625 15.12890625 20.2815625 15.12890625 19.6015625 C23.54804661 16.26293787 30.85168727 15.42016197 39.87890625 15.4140625 C41.2865625 15.39569336 41.2865625 15.39569336 42.72265625 15.37695312 C51.24943713 15.35928714 59.10985391 16.6471748 67.12890625 19.6015625 C67.12890625 20.2615625 67.12890625 20.9215625 67.12890625 21.6015625 C68.44890625 21.6015625 69.76890625 21.6015625 71.12890625 21.6015625 C71.16628906 21.00988281 71.20367187 20.41820313 71.2421875 19.80859375 C71.6368057 15.06543772 72.03670423 11.435893 75.12890625 7.6015625 C75.78890625 7.6015625 76.44890625 7.6015625 77.12890625 7.6015625 C77.45890625 6.2815625 77.78890625 4.9615625 78.12890625 3.6015625 C78.78890625 3.6015625 79.44890625 3.6015625 80.12890625 3.6015625 C80.45890625 2.6115625 80.78890625 1.6215625 81.12890625 0.6015625 C84.3577339 -1.64067892 87.27345314 -1.66771477 91.12890625 -1.6484375 C92.67578125 -1.65617188 92.67578125 -1.65617188 94.25390625 -1.6640625 C97.07487903 -1.40342915 98.73036343 -0.85140094 101.12890625 0.6015625 C101.12890625 1.5915625 101.12890625 2.5815625 101.12890625 3.6015625 C101.83015625 3.5190625 102.53140625 3.4365625 103.25390625 3.3515625 C107.09711601 3.68575465 109.1136705 5.27160761 112.12890625 7.6015625 C112.45890625 8.2615625 112.78890625 8.9215625 113.12890625 9.6015625 C113.95390625 10.0759375 114.77890625 10.5503125 115.62890625 11.0390625 C118.12890625 12.6015625 118.12890625 12.6015625 119.12890625 15.6015625 C121.07493899 16.19226264 121.07493899 16.19226264 123.12890625 16.6015625 C125.12890625 18.6015625 125.12890625 18.6015625 125.12890625 21.6015625 C126.11890625 21.6015625 127.10890625 21.6015625 128.12890625 21.6015625 C128.56203125 22.5503125 128.99515625 23.4990625 129.44140625 24.4765625 C130.92192826 27.80198187 130.92192826 27.80198187 134.12890625 29.6015625 C134.12890625 30.9215625 134.12890625 32.2415625 134.12890625 33.6015625 C134.78890625 33.6015625 135.44890625 33.6015625 136.12890625 33.6015625 C137.47522677 37.64052407 137.31308173 41.3727772 137.31640625 45.6015625 C137.32865234 46.42140625 137.34089844 47.24125 137.35351562 48.0859375 C137.35544922 48.87484375 137.35738281 49.66375 137.359375 50.4765625 C137.36348389 51.19585937 137.36759277 51.91515625 137.37182617 52.65625 C137.12890625 54.6015625 137.12890625 54.6015625 135.12890625 57.6015625 C134.46890625 57.6015625 133.80890625 57.6015625 133.12890625 57.6015625 C133.12890625 58.2615625 133.12890625 58.9215625 133.12890625 59.6015625 C130.0577534 62.55459409 127.29556665 63.12807836 123.12890625 63.6015625 C122.79890625 65.5815625 122.46890625 67.5615625 122.12890625 69.6015625 C119.65390625 70.0965625 119.65390625 70.0965625 117.12890625 70.6015625 C117.45890625 70.9315625 117.78890625 71.2615625 118.12890625 71.6015625 C118.36318403 73.61750832 118.54226749 75.6400365 118.69140625 77.6640625 C118.77519531 78.76878906 118.85898438 79.87351562 118.9453125 81.01171875 C119.00589844 81.86636719 119.06648437 82.72101563 119.12890625 83.6015625 C119.78890625 83.6015625 120.44890625 83.6015625 121.12890625 83.6015625 C122.49843298 86.34061595 122.25511986 88.57243582 122.12890625 91.6015625 C121.79890625 92.2615625 121.46890625 92.9215625 121.12890625 93.6015625 C120.46890625 93.6015625 119.80890625 93.6015625 119.12890625 93.6015625 C119.07283203 94.45427734 119.07283203 94.45427734 119.015625 95.32421875 C118.55912003 100.68591443 117.49401543 104.7685133 115.12890625 109.6015625 C114.46890625 109.6015625 113.80890625 109.6015625 113.12890625 109.6015625 C112.79890625 112.2415625 112.46890625 114.8815625 112.12890625 117.6015625 C111.46890625 117.6015625 110.80890625 117.6015625 110.12890625 117.6015625 C109.79890625 119.2515625 109.46890625 120.9015625 109.12890625 122.6015625 C108.46890625 122.6015625 107.80890625 122.6015625 107.12890625 122.6015625 C106.97421875 123.7153125 106.97421875 123.7153125 106.81640625 124.8515625 C106.07956828 127.7989144 105.18091483 129.38539324 103.12890625 131.6015625 C102.46890625 131.6015625 101.80890625 131.6015625 101.12890625 131.6015625 C100.79890625 132.9215625 100.46890625 134.2415625 100.12890625 135.6015625 C99.46890625 135.6015625 98.80890625 135.6015625 98.12890625 135.6015625 C97.79890625 136.5915625 97.46890625 137.5815625 97.12890625 138.6015625 C96.46890625 138.6015625 95.80890625 138.6015625 95.12890625 138.6015625 C94.79890625 139.5915625 94.46890625 140.5815625 94.12890625 141.6015625 C93.46890625 141.6015625 92.80890625 141.6015625 92.12890625 141.6015625 C91.79890625 142.5915625 91.46890625 143.5815625 91.12890625 144.6015625 C88.15718399 147.3683384 87.387 147.6015625 83.12890625 147.6015625 C83.12890625 148.5915625 83.12890625 149.5815625 83.12890625 150.6015625 C77.50390625 153.6015625 77.50390625 153.6015625 74.12890625 153.6015625 C73.79890625 154.5915625 73.46890625 155.5815625 73.12890625 156.6015625 C71.421875 157.55078125 71.421875 157.55078125 69.31640625 158.2890625 C68.28580078 158.66611328 68.28580078 158.66611328 67.234375 159.05078125 C65.12890625 159.6015625 65.12890625 159.6015625 61.12890625 159.6015625 C61.12890625 160.2615625 61.12890625 160.9215625 61.12890625 161.6015625 C53.9998935 164.14176319 47.61650018 165.09693778 40.06640625 165.0390625 C39.13763672 165.05904297 38.20886719 165.07902344 37.25195312 165.09960938 C31.4677773 165.0955503 27.28521274 164.16293175 22.11401367 161.5793457 C19.58871216 160.33548486 17.046087 159.63999882 14.31640625 158.9765625 C10.99526575 158.16185271 8.13602591 157.24180959 5.12890625 155.6015625 C5.12890625 154.9415625 5.12890625 154.2815625 5.12890625 153.6015625 C4.57203125 153.4984375 4.01515625 153.3953125 3.44140625 153.2890625 C0.65199615 152.45977842 -1.48500015 151.25857194 -3.87109375 149.6015625 C-3.87109375 148.9415625 -3.87109375 148.2815625 -3.87109375 147.6015625 C-4.86109375 147.2715625 -5.85109375 146.9415625 -6.87109375 146.6015625 C-6.87109375 145.9415625 -6.87109375 145.2815625 -6.87109375 144.6015625 C-8.19109375 144.2715625 -9.51109375 143.9415625 -10.87109375 143.6015625 C-10.87109375 142.9415625 -10.87109375 142.2815625 -10.87109375 141.6015625 C-11.53109375 141.6015625 -12.19109375 141.6015625 -12.87109375 141.6015625 C-12.87109375 140.9415625 -12.87109375 140.2815625 -12.87109375 139.6015625 C-13.79921875 139.26125 -13.79921875 139.26125 -14.74609375 138.9140625 C-17.49307425 137.21739807 -17.73744648 135.54904539 -18.87109375 132.6015625 C-19.86109375 132.2715625 -20.85109375 131.9415625 -21.87109375 131.6015625 C-23.94639762 128.68076445 -24.87109375 127.22609519 -24.87109375 123.6015625 C-25.53109375 123.6015625 -26.19109375 123.6015625 -26.87109375 123.6015625 C-31.44252232 116.31584821 -31.44252232 116.31584821 -30.87109375 111.6015625 C-32.35609375 111.1065625 -32.35609375 111.1065625 -33.87109375 110.6015625 C-33.87109375 108.9515625 -33.87109375 107.3015625 -33.87109375 105.6015625 C-34.53109375 105.6015625 -35.19109375 105.6015625 -35.87109375 105.6015625 C-37.05552343 99.97315266 -37.05476266 94.4502084 -37.05859375 88.7265625 C-37.07083984 87.77136719 -37.08308594 86.81617187 -37.09570312 85.83203125 C-37.10999746 78.88498346 -36.07108556 73.20153794 -33.87109375 66.6015625 C-35.52109375 66.6015625 -37.17109375 66.6015625 -38.87109375 66.6015625 C-39.20109375 65.6115625 -39.53109375 64.6215625 -39.87109375 63.6015625 C-40.94359375 63.4984375 -42.01609375 63.3953125 -43.12109375 63.2890625 C-46.71848644 62.62954051 -48.32885566 62.14380059 -50.87109375 59.6015625 C-50.87109375 58.9415625 -50.87109375 58.2815625 -50.87109375 57.6015625 C-51.53109375 57.6015625 -52.19109375 57.6015625 -52.87109375 57.6015625 C-54.91319268 54.53841411 -55.12125628 53.9241332 -55.1015625 50.4765625 C-55.09962891 49.68765625 -55.09769531 48.89875 -55.09570312 48.0859375 C-55.08345703 47.26609375 -55.07121094 46.44625 -55.05859375 45.6015625 C-55.05794922 44.78171875 -55.05730469 43.961875 -55.05664062 43.1171875 C-55.03094158 39.62211801 -54.98689425 36.94896401 -53.87109375 33.6015625 C-53.21109375 33.6015625 -52.55109375 33.6015625 -51.87109375 33.6015625 C-51.74734375 32.7971875 -51.62359375 31.9928125 -51.49609375 31.1640625 C-51.18671875 29.895625 -51.18671875 29.895625 -50.87109375 28.6015625 C-50.21109375 28.2715625 -49.55109375 27.9415625 -48.87109375 27.6015625 C-47.82301334 25.62633404 -46.81905265 23.62674741 -45.87109375 21.6015625 C-44.88109375 21.6015625 -43.89109375 21.6015625 -42.87109375 21.6015625 C-42.74734375 20.9828125 -42.62359375 20.3640625 -42.49609375 19.7265625 C-41.87109375 17.6015625 -41.87109375 17.6015625 -39.87109375 15.6015625 C-38.88109375 15.6015625 -37.89109375 15.6015625 -36.87109375 15.6015625 C-36.58234375 14.9828125 -36.29359375 14.3640625 -35.99609375 13.7265625 C-34.87109375 11.6015625 -34.87109375 11.6015625 -32.87109375 9.6015625 C-31.88109375 9.6015625 -30.89109375 9.6015625 -29.87109375 9.6015625 C-29.54109375 8.6115625 -29.21109375 7.6215625 -28.87109375 6.6015625 C-25.9502957 4.52625863 -24.49562644 3.6015625 -20.87109375 3.6015625 C-20.87109375 2.9415625 -20.87109375 2.2815625 -20.87109375 1.6015625 C-14.79206238 -2.45112508 -6.62765771 -3.22816525 0 0 Z " fill="#F7F7F7" transform="translate(54.87109375,14.3984375)"/>
<path d="M0 0 C0.70253906 0.52851563 1.40507813 1.05703125 2.12890625 1.6015625 C2.12890625 2.2615625 2.12890625 2.9215625 2.12890625 3.6015625 C3.11890625 3.9315625 4.10890625 4.2615625 5.12890625 4.6015625 C5.12890625 5.5915625 5.12890625 6.5815625 5.12890625 7.6015625 C5.78890625 7.6015625 6.44890625 7.6015625 7.12890625 7.6015625 C10.57826242 11.87876415 10.79523355 16.32032909 11.12890625 21.6015625 C12.44890625 21.6015625 13.76890625 21.6015625 15.12890625 21.6015625 C15.12890625 20.9415625 15.12890625 20.2815625 15.12890625 19.6015625 C23.54804661 16.26293787 30.85168727 15.42016197 39.87890625 15.4140625 C41.2865625 15.39569336 41.2865625 15.39569336 42.72265625 15.37695312 C51.24943713 15.35928714 59.10985391 16.6471748 67.12890625 19.6015625 C67.12890625 20.2615625 67.12890625 20.9215625 67.12890625 21.6015625 C68.44890625 21.6015625 69.76890625 21.6015625 71.12890625 21.6015625 C71.16628906 21.00988281 71.20367187 20.41820313 71.2421875 19.80859375 C71.6368057 15.06543772 72.03670423 11.435893 75.12890625 7.6015625 C75.78890625 7.6015625 76.44890625 7.6015625 77.12890625 7.6015625 C77.45890625 6.2815625 77.78890625 4.9615625 78.12890625 3.6015625 C78.78890625 3.6015625 79.44890625 3.6015625 80.12890625 3.6015625 C80.45890625 2.6115625 80.78890625 1.6215625 81.12890625 0.6015625 C84.3577339 -1.64067892 87.27345314 -1.66771477 91.12890625 -1.6484375 C92.67578125 -1.65617188 92.67578125 -1.65617188 94.25390625 -1.6640625 C97.07487903 -1.40342915 98.73036343 -0.85140094 101.12890625 0.6015625 C101.12890625 1.5915625 101.12890625 2.5815625 101.12890625 3.6015625 C101.83015625 3.5190625 102.53140625 3.4365625 103.25390625 3.3515625 C107.09711601 3.68575465 109.1136705 5.27160761 112.12890625 7.6015625 C112.45890625 8.2615625 112.78890625 8.9215625 113.12890625 9.6015625 C113.95390625 10.0759375 114.77890625 10.5503125 115.62890625 11.0390625 C118.12890625 12.6015625 118.12890625 12.6015625 119.12890625 15.6015625 C121.07493899 16.19226264 121.07493899 16.19226264 123.12890625 16.6015625 C125.12890625 18.6015625 125.12890625 18.6015625 125.12890625 21.6015625 C126.11890625 21.6015625 127.10890625 21.6015625 128.12890625 21.6015625 C128.56203125 22.5503125 128.99515625 23.4990625 129.44140625 24.4765625 C130.92192826 27.80198187 130.92192826 27.80198187 134.12890625 29.6015625 C134.12890625 30.9215625 134.12890625 32.2415625 134.12890625 33.6015625 C134.78890625 33.6015625 135.44890625 33.6015625 136.12890625 33.6015625 C137.47522677 37.64052407 137.31308173 41.3727772 137.31640625 45.6015625 C137.32865234 46.42140625 137.34089844 47.24125 137.35351562 48.0859375 C137.35544922 48.87484375 137.35738281 49.66375 137.359375 50.4765625 C137.36348389 51.19585937 137.36759277 51.91515625 137.37182617 52.65625 C137.12890625 54.6015625 137.12890625 54.6015625 135.12890625 57.6015625 C134.46890625 57.6015625 133.80890625 57.6015625 133.12890625 57.6015625 C133.12890625 58.2615625 133.12890625 58.9215625 133.12890625 59.6015625 C130.0577534 62.55459409 127.29556665 63.12807836 123.12890625 63.6015625 C122.79890625 65.5815625 122.46890625 67.5615625 122.12890625 69.6015625 C119.65390625 70.0965625 119.65390625 70.0965625 117.12890625 70.6015625 C117.45890625 70.9315625 117.78890625 71.2615625 118.12890625 71.6015625 C118.36318403 73.61750832 118.54226749 75.6400365 118.69140625 77.6640625 C118.77519531 78.76878906 118.85898438 79.87351562 118.9453125 81.01171875 C119.00589844 81.86636719 119.06648437 82.72101563 119.12890625 83.6015625 C119.78890625 83.6015625 120.44890625 83.6015625 121.12890625 83.6015625 C122.49843298 86.34061595 122.25511986 88.57243582 122.12890625 91.6015625 C121.79890625 92.2615625 121.46890625 92.9215625 121.12890625 93.6015625 C120.46890625 93.6015625 119.80890625 93.6015625 119.12890625 93.6015625 C119.07283203 94.45427734 119.07283203 94.45427734 119.015625 95.32421875 C118.55912003 100.68591443 117.49401543 104.7685133 115.12890625 109.6015625 C114.46890625 109.6015625 113.80890625 109.6015625 113.12890625 109.6015625 C112.79890625 112.2415625 112.46890625 114.8815625 112.12890625 117.6015625 C111.46890625 117.6015625 110.80890625 117.6015625 110.12890625 117.6015625 C109.79890625 119.2515625 109.46890625 120.9015625 109.12890625 122.6015625 C108.46890625 122.6015625 107.80890625 122.6015625 107.12890625 122.6015625 C106.97421875 123.7153125 106.97421875 123.7153125 106.81640625 124.8515625 C106.07956828 127.7989144 105.18091483 129.38539324 103.12890625 131.6015625 C102.46890625 131.6015625 101.80890625 131.6015625 101.12890625 131.6015625 C100.79890625 132.9215625 100.46890625 134.2415625 100.12890625 135.6015625 C99.46890625 135.6015625 98.80890625 135.6015625 98.12890625 135.6015625 C97.79890625 136.5915625 97.46890625 137.5815625 97.12890625 138.6015625 C96.46890625 138.6015625 95.80890625 138.6015625 95.12890625 138.6015625 C94.79890625 139.5915625 94.46890625 140.5815625 94.12890625 141.6015625 C93.46890625 141.6015625 92.80890625 141.6015625 92.12890625 141.6015625 C91.79890625 142.5915625 91.46890625 143.5815625 91.12890625 144.6015625 C88.15718399 147.3683384 87.387 147.6015625 83.12890625 147.6015625 C83.12890625 148.5915625 83.12890625 149.5815625 83.12890625 150.6015625 C77.50390625 153.6015625 77.50390625 153.6015625 74.12890625 153.6015625 C73.79890625 154.5915625 73.46890625 155.5815625 73.12890625 156.6015625 C71.421875 157.55078125 71.421875 157.55078125 69.31640625 158.2890625 C68.28580078 158.66611328 68.28580078 158.66611328 67.234375 159.05078125 C65.12890625 159.6015625 65.12890625 159.6015625 61.12890625 159.6015625 C61.12890625 160.2615625 61.12890625 160.9215625 61.12890625 161.6015625 C53.9998935 164.14176319 47.61650018 165.09693778 40.06640625 165.0390625 C39.13763672 165.05904297 38.20886719 165.07902344 37.25195312 165.09960938 C31.4677773 165.0955503 27.28521274 164.16293175 22.11401367 161.5793457 C19.58871216 160.33548486 17.046087 159.63999882 14.31640625 158.9765625 C10.99526575 158.16185271 8.13602591 157.24180959 5.12890625 155.6015625 C5.12890625 154.9415625 5.12890625 154.2815625 5.12890625 153.6015625 C4.57203125 153.4984375 4.01515625 153.3953125 3.44140625 153.2890625 C0.65199615 152.45977842 -1.48500015 151.25857194 -3.87109375 149.6015625 C-3.87109375 148.9415625 -3.87109375 148.2815625 -3.87109375 147.6015625 C-4.86109375 147.2715625 -5.85109375 146.9415625 -6.87109375 146.6015625 C-6.87109375 145.9415625 -6.87109375 145.2815625 -6.87109375 144.6015625 C-8.19109375 144.2715625 -9.51109375 143.9415625 -10.87109375 143.6015625 C-10.87109375 142.9415625 -10.87109375 142.2815625 -10.87109375 141.6015625 C-11.53109375 141.6015625 -12.19109375 141.6015625 -12.87109375 141.6015625 C-12.87109375 140.9415625 -12.87109375 140.2815625 -12.87109375 139.6015625 C-13.79921875 139.26125 -13.79921875 139.26125 -14.74609375 138.9140625 C-17.49307425 137.21739807 -17.73744648 135.54904539 -18.87109375 132.6015625 C-19.86109375 132.2715625 -20.85109375 131.9415625 -21.87109375 131.6015625 C-23.94639762 128.68076445 -24.87109375 127.22609519 -24.87109375 123.6015625 C-25.53109375 123.6015625 -26.19109375 123.6015625 -26.87109375 123.6015625 C-31.44252232 116.31584821 -31.44252232 116.31584821 -30.87109375 111.6015625 C-32.35609375 111.1065625 -32.35609375 111.1065625 -33.87109375 110.6015625 C-33.87109375 108.9515625 -33.87109375 107.3015625 -33.87109375 105.6015625 C-34.53109375 105.6015625 -35.19109375 105.6015625 -35.87109375 105.6015625 C-37.05552343 99.97315266 -37.05476266 94.4502084 -37.05859375 88.7265625 C-37.07083984 87.77136719 -37.08308594 86.81617187 -37.09570312 85.83203125 C-37.10999746 78.88498346 -36.07108556 73.20153794 -33.87109375 66.6015625 C-35.52109375 66.6015625 -37.17109375 66.6015625 -38.87109375 66.6015625 C-39.20109375 65.6115625 -39.53109375 64.6215625 -39.87109375 63.6015625 C-40.94359375 63.4984375 -42.01609375 63.3953125 -43.12109375 63.2890625 C-46.71848644 62.62954051 -48.32885566 62.14380059 -50.87109375 59.6015625 C-50.87109375 58.9415625 -50.87109375 58.2815625 -50.87109375 57.6015625 C-51.53109375 57.6015625 -52.19109375 57.6015625 -52.87109375 57.6015625 C-54.91319268 54.53841411 -55.12125628 53.9241332 -55.1015625 50.4765625 C-55.09962891 49.68765625 -55.09769531 48.89875 -55.09570312 48.0859375 C-55.08345703 47.26609375 -55.07121094 46.44625 -55.05859375 45.6015625 C-55.05794922 44.78171875 -55.05730469 43.961875 -55.05664062 43.1171875 C-55.03094158 39.62211801 -54.98689425 36.94896401 -53.87109375 33.6015625 C-53.21109375 33.6015625 -52.55109375 33.6015625 -51.87109375 33.6015625 C-51.74734375 32.7971875 -51.62359375 31.9928125 -51.49609375 31.1640625 C-51.18671875 29.895625 -51.18671875 29.895625 -50.87109375 28.6015625 C-50.21109375 28.2715625 -49.55109375 27.9415625 -48.87109375 27.6015625 C-47.82301334 25.62633404 -46.81905265 23.62674741 -45.87109375 21.6015625 C-44.88109375 21.6015625 -43.89109375 21.6015625 -42.87109375 21.6015625 C-42.74734375 20.9828125 -42.62359375 20.3640625 -42.49609375 19.7265625 C-41.87109375 17.6015625 -41.87109375 17.6015625 -39.87109375 15.6015625 C-38.88109375 15.6015625 -37.89109375 15.6015625 -36.87109375 15.6015625 C-36.58234375 14.9828125 -36.29359375 14.3640625 -35.99609375 13.7265625 C-34.87109375 11.6015625 -34.87109375 11.6015625 -32.87109375 9.6015625 C-31.88109375 9.6015625 -30.89109375 9.6015625 -29.87109375 9.6015625 C-29.54109375 8.6115625 -29.21109375 7.6215625 -28.87109375 6.6015625 C-25.9502957 4.52625863 -24.49562644 3.6015625 -20.87109375 3.6015625 C-20.87109375 2.9415625 -20.87109375 2.2815625 -20.87109375 1.6015625 C-14.79206238 -2.45112508 -6.62765771 -3.22816525 0 0 Z M29.12890625 21.6015625 C29.12890625 22.2615625 29.12890625 22.9215625 29.12890625 23.6015625 C27.14890625 23.6015625 25.16890625 23.6015625 23.12890625 23.6015625 C23.12890625 24.2615625 23.12890625 24.9215625 23.12890625 25.6015625 C19.82890625 25.6015625 16.52890625 25.6015625 13.12890625 25.6015625 C13.12890625 26.2615625 13.12890625 26.9215625 13.12890625 27.6015625 C11.80890625 27.6015625 10.48890625 27.6015625 9.12890625 27.6015625 C9.12890625 28.2615625 9.12890625 28.9215625 9.12890625 29.6015625 C7.80890625 29.6015625 6.48890625 29.6015625 5.12890625 29.6015625 C5.12890625 30.2615625 5.12890625 30.9215625 5.12890625 31.6015625 C4.46890625 31.6015625 3.80890625 31.6015625 3.12890625 31.6015625 C3.12890625 32.2615625 3.12890625 32.9215625 3.12890625 33.6015625 C1.80890625 33.6015625 0.48890625 33.6015625 -0.87109375 33.6015625 C-0.87109375 34.2615625 -0.87109375 34.9215625 -0.87109375 35.6015625 C-1.53109375 35.6015625 -2.19109375 35.6015625 -2.87109375 35.6015625 C-2.87109375 36.2615625 -2.87109375 36.9215625 -2.87109375 37.6015625 C-4.19109375 37.6015625 -5.51109375 37.6015625 -6.87109375 37.6015625 C-6.87109375 38.2615625 -6.87109375 38.9215625 -6.87109375 39.6015625 C-7.53109375 39.6015625 -8.19109375 39.6015625 -8.87109375 39.6015625 C-8.87109375 40.2615625 -8.87109375 40.9215625 -8.87109375 41.6015625 C-9.53109375 41.6015625 -10.19109375 41.6015625 -10.87109375 41.6015625 C-10.87109375 42.2615625 -10.87109375 42.9215625 -10.87109375 43.6015625 C-11.53109375 43.6015625 -12.19109375 43.6015625 -12.87109375 43.6015625 C-12.87109375 44.2615625 -12.87109375 44.9215625 -12.87109375 45.6015625 C-13.53109375 45.6015625 -14.19109375 45.6015625 -14.87109375 45.6015625 C-14.87109375 46.2615625 -14.87109375 46.9215625 -14.87109375 47.6015625 C-15.53109375 47.6015625 -16.19109375 47.6015625 -16.87109375 47.6015625 C-16.87109375 48.9215625 -16.87109375 50.2415625 -16.87109375 51.6015625 C-17.53109375 51.6015625 -18.19109375 51.6015625 -18.87109375 51.6015625 C-18.87109375 52.2615625 -18.87109375 52.9215625 -18.87109375 53.6015625 C-19.53109375 53.6015625 -20.19109375 53.6015625 -20.87109375 53.6015625 C-20.87109375 54.9215625 -20.87109375 56.2415625 -20.87109375 57.6015625 C-21.53109375 57.6015625 -22.19109375 57.6015625 -22.87109375 57.6015625 C-22.87109375 58.9215625 -22.87109375 60.2415625 -22.87109375 61.6015625 C-23.53109375 61.6015625 -24.19109375 61.6015625 -24.87109375 61.6015625 C-24.87109375 62.9215625 -24.87109375 64.2415625 -24.87109375 65.6015625 C-25.53109375 65.6015625 -26.19109375 65.6015625 -26.87109375 65.6015625 C-26.87109375 68.2415625 -26.87109375 70.8815625 -26.87109375 73.6015625 C-27.53109375 73.6015625 -28.19109375 73.6015625 -28.87109375 73.6015625 C-28.87109375 74.2615625 -28.87109375 74.9215625 -28.87109375 75.6015625 C-29.53109375 75.6015625 -30.19109375 75.6015625 -30.87109375 75.6015625 C-30.87109375 82.8615625 -30.87109375 90.1215625 -30.87109375 97.6015625 C-30.21109375 97.6015625 -29.55109375 97.6015625 -28.87109375 97.6015625 C-28.87109375 100.2415625 -28.87109375 102.8815625 -28.87109375 105.6015625 C-28.21109375 105.6015625 -27.55109375 105.6015625 -26.87109375 105.6015625 C-26.87109375 106.9215625 -26.87109375 108.2415625 -26.87109375 109.6015625 C-26.21109375 109.6015625 -25.55109375 109.6015625 -24.87109375 109.6015625 C-24.87109375 110.9215625 -24.87109375 112.2415625 -24.87109375 113.6015625 C-24.21109375 113.6015625 -23.55109375 113.6015625 -22.87109375 113.6015625 C-22.87109375 114.9215625 -22.87109375 116.2415625 -22.87109375 117.6015625 C-22.21109375 117.6015625 -21.55109375 117.6015625 -20.87109375 117.6015625 C-20.87109375 118.2615625 -20.87109375 118.9215625 -20.87109375 119.6015625 C-20.21109375 119.6015625 -19.55109375 119.6015625 -18.87109375 119.6015625 C-18.87109375 120.9215625 -18.87109375 122.2415625 -18.87109375 123.6015625 C-18.21109375 123.6015625 -17.55109375 123.6015625 -16.87109375 123.6015625 C-16.87109375 124.2615625 -16.87109375 124.9215625 -16.87109375 125.6015625 C-16.21109375 125.6015625 -15.55109375 125.6015625 -14.87109375 125.6015625 C-14.87109375 126.9215625 -14.87109375 128.2415625 -14.87109375 129.6015625 C-14.21109375 129.6015625 -13.55109375 129.6015625 -12.87109375 129.6015625 C-12.87109375 130.2615625 -12.87109375 130.9215625 -12.87109375 131.6015625 C-12.21109375 131.6015625 -11.55109375 131.6015625 -10.87109375 131.6015625 C-10.87109375 132.2615625 -10.87109375 132.9215625 -10.87109375 133.6015625 C-10.21109375 133.6015625 -9.55109375 133.6015625 -8.87109375 133.6015625 C-8.87109375 134.2615625 -8.87109375 134.9215625 -8.87109375 135.6015625 C-8.21109375 135.6015625 -7.55109375 135.6015625 -6.87109375 135.6015625 C-6.87109375 136.2615625 -6.87109375 136.9215625 -6.87109375 137.6015625 C-6.21109375 137.6015625 -5.55109375 137.6015625 -4.87109375 137.6015625 C-4.87109375 138.2615625 -4.87109375 138.9215625 -4.87109375 139.6015625 C-4.21109375 139.6015625 -3.55109375 139.6015625 -2.87109375 139.6015625 C-2.87109375 140.2615625 -2.87109375 140.9215625 -2.87109375 141.6015625 C-2.21109375 141.6015625 -1.55109375 141.6015625 -0.87109375 141.6015625 C-0.87109375 142.2615625 -0.87109375 142.9215625 -0.87109375 143.6015625 C-0.21109375 143.6015625 0.44890625 143.6015625 1.12890625 143.6015625 C1.12890625 144.2615625 1.12890625 144.9215625 1.12890625 145.6015625 C2.44890625 145.6015625 3.76890625 145.6015625 5.12890625 145.6015625 C5.12890625 146.2615625 5.12890625 146.9215625 5.12890625 147.6015625 C6.44890625 147.6015625 7.76890625 147.6015625 9.12890625 147.6015625 C9.12890625 148.2615625 9.12890625 148.9215625 9.12890625 149.6015625 C9.78890625 149.6015625 10.44890625 149.6015625 11.12890625 149.6015625 C11.12890625 150.2615625 11.12890625 150.9215625 11.12890625 151.6015625 C12.44890625 151.6015625 13.76890625 151.6015625 15.12890625 151.6015625 C15.12890625 152.2615625 15.12890625 152.9215625 15.12890625 153.6015625 C16.44890625 153.6015625 17.76890625 153.6015625 19.12890625 153.6015625 C19.12890625 154.2615625 19.12890625 154.9215625 19.12890625 155.6015625 C21.76890625 155.6015625 24.40890625 155.6015625 27.12890625 155.6015625 C27.12890625 156.2615625 27.12890625 156.9215625 27.12890625 157.6015625 C37.02890625 157.6015625 46.92890625 157.6015625 57.12890625 157.6015625 C57.12890625 156.9415625 57.12890625 156.2815625 57.12890625 155.6015625 C57.78890625 155.6015625 58.44890625 155.6015625 59.12890625 155.6015625 C59.12890625 154.9415625 59.12890625 154.2815625 59.12890625 153.6015625 C61.10890625 153.6015625 63.08890625 153.6015625 65.12890625 153.6015625 C65.12890625 152.9415625 65.12890625 152.2815625 65.12890625 151.6015625 C66.44890625 151.6015625 67.76890625 151.6015625 69.12890625 151.6015625 C69.12890625 150.9415625 69.12890625 150.2815625 69.12890625 149.6015625 C70.44890625 149.6015625 71.76890625 149.6015625 73.12890625 149.6015625 C73.12890625 148.9415625 73.12890625 148.2815625 73.12890625 147.6015625 C74.44890625 147.6015625 75.76890625 147.6015625 77.12890625 147.6015625 C77.12890625 146.9415625 77.12890625 146.2815625 77.12890625 145.6015625 C77.78890625 145.6015625 78.44890625 145.6015625 79.12890625 145.6015625 C79.12890625 144.9415625 79.12890625 144.2815625 79.12890625 143.6015625 C79.78890625 143.6015625 80.44890625 143.6015625 81.12890625 143.6015625 C81.12890625 142.9415625 81.12890625 142.2815625 81.12890625 141.6015625 C81.78890625 141.6015625 82.44890625 141.6015625 83.12890625 141.6015625 C83.12890625 140.9415625 83.12890625 140.2815625 83.12890625 139.6015625 C84.44890625 139.6015625 85.76890625 139.6015625 87.12890625 139.6015625 C87.12890625 138.9415625 87.12890625 138.2815625 87.12890625 137.6015625 C87.78890625 137.6015625 88.44890625 137.6015625 89.12890625 137.6015625 C89.12890625 136.9415625 89.12890625 136.2815625 89.12890625 135.6015625 C89.78890625 135.6015625 90.44890625 135.6015625 91.12890625 135.6015625 C91.12890625 134.2815625 91.12890625 132.9615625 91.12890625 131.6015625 C91.78890625 131.6015625 92.44890625 131.6015625 93.12890625 131.6015625 C93.12890625 130.9415625 93.12890625 130.2815625 93.12890625 129.6015625 C93.78890625 129.6015625 94.44890625 129.6015625 95.12890625 129.6015625 C95.12890625 128.9415625 95.12890625 128.2815625 95.12890625 127.6015625 C95.78890625 127.6015625 96.44890625 127.6015625 97.12890625 127.6015625 C97.12890625 126.9415625 97.12890625 126.2815625 97.12890625 125.6015625 C97.78890625 125.6015625 98.44890625 125.6015625 99.12890625 125.6015625 C99.12890625 124.2815625 99.12890625 122.9615625 99.12890625 121.6015625 C99.78890625 121.6015625 100.44890625 121.6015625 101.12890625 121.6015625 C101.12890625 120.9415625 101.12890625 120.2815625 101.12890625 119.6015625 C101.78890625 119.6015625 102.44890625 119.6015625 103.12890625 119.6015625 C103.12890625 118.2815625 103.12890625 116.9615625 103.12890625 115.6015625 C103.78890625 115.6015625 104.44890625 115.6015625 105.12890625 115.6015625 C105.12890625 114.2815625 105.12890625 112.9615625 105.12890625 111.6015625 C105.78890625 111.6015625 106.44890625 111.6015625 107.12890625 111.6015625 C107.12890625 110.2815625 107.12890625 108.9615625 107.12890625 107.6015625 C107.78890625 107.6015625 108.44890625 107.6015625 109.12890625 107.6015625 C109.12890625 106.2815625 109.12890625 104.9615625 109.12890625 103.6015625 C109.78890625 103.6015625 110.44890625 103.6015625 111.12890625 103.6015625 C111.12890625 100.3015625 111.12890625 97.0015625 111.12890625 93.6015625 C111.78890625 93.6015625 112.44890625 93.6015625 113.12890625 93.6015625 C113.12890625 88.3215625 113.12890625 83.0415625 113.12890625 77.6015625 C112.46890625 77.6015625 111.80890625 77.6015625 111.12890625 77.6015625 C111.12890625 74.3015625 111.12890625 71.0015625 111.12890625 67.6015625 C110.46890625 67.6015625 109.80890625 67.6015625 109.12890625 67.6015625 C109.12890625 66.2815625 109.12890625 64.9615625 109.12890625 63.6015625 C108.46890625 63.6015625 107.80890625 63.6015625 107.12890625 63.6015625 C107.12890625 62.2815625 107.12890625 60.9615625 107.12890625 59.6015625 C106.46890625 59.6015625 105.80890625 59.6015625 105.12890625 59.6015625 C105.12890625 58.2815625 105.12890625 56.9615625 105.12890625 55.6015625 C104.46890625 55.6015625 103.80890625 55.6015625 103.12890625 55.6015625 C103.12890625 54.2815625 103.12890625 52.9615625 103.12890625 51.6015625 C102.46890625 51.6015625 101.80890625 51.6015625 101.12890625 51.6015625 C101.12890625 50.9415625 101.12890625 50.2815625 101.12890625 49.6015625 C100.46890625 49.6015625 99.80890625 49.6015625 99.12890625 49.6015625 C99.12890625 48.9415625 99.12890625 48.2815625 99.12890625 47.6015625 C98.46890625 47.6015625 97.80890625 47.6015625 97.12890625 47.6015625 C97.12890625 46.9415625 97.12890625 46.2815625 97.12890625 45.6015625 C96.46890625 45.6015625 95.80890625 45.6015625 95.12890625 45.6015625 C95.12890625 44.9415625 95.12890625 44.2815625 95.12890625 43.6015625 C94.46890625 43.6015625 93.80890625 43.6015625 93.12890625 43.6015625 C93.12890625 42.9415625 93.12890625 42.2815625 93.12890625 41.6015625 C92.46890625 41.6015625 91.80890625 41.6015625 91.12890625 41.6015625 C91.12890625 40.9415625 91.12890625 40.2815625 91.12890625 39.6015625 C90.46890625 39.6015625 89.80890625 39.6015625 89.12890625 39.6015625 C89.12890625 38.9415625 89.12890625 38.2815625 89.12890625 37.6015625 C87.80890625 37.6015625 86.48890625 37.6015625 85.12890625 37.6015625 C85.12890625 36.9415625 85.12890625 36.2815625 85.12890625 35.6015625 C84.46890625 35.6015625 83.80890625 35.6015625 83.12890625 35.6015625 C83.12890625 34.9415625 83.12890625 34.2815625 83.12890625 33.6015625 C81.80890625 33.6015625 80.48890625 33.6015625 79.12890625 33.6015625 C79.12890625 32.9415625 79.12890625 32.2815625 79.12890625 31.6015625 C77.80890625 31.6015625 76.48890625 31.6015625 75.12890625 31.6015625 C75.12890625 30.9415625 75.12890625 30.2815625 75.12890625 29.6015625 C73.80890625 29.6015625 72.48890625 29.6015625 71.12890625 29.6015625 C71.12890625 28.9415625 71.12890625 28.2815625 71.12890625 27.6015625 C69.14890625 27.6015625 67.16890625 27.6015625 65.12890625 27.6015625 C65.12890625 26.9415625 65.12890625 26.2815625 65.12890625 25.6015625 C63.14890625 25.6015625 61.16890625 25.6015625 59.12890625 25.6015625 C59.12890625 24.9415625 59.12890625 24.2815625 59.12890625 23.6015625 C56.48890625 23.6015625 53.84890625 23.6015625 51.12890625 23.6015625 C51.12890625 22.9415625 51.12890625 22.2815625 51.12890625 21.6015625 C43.86890625 21.6015625 36.60890625 21.6015625 29.12890625 21.6015625 Z " fill="#494949" transform="translate(54.87109375,14.3984375)"/>
<path d="M0 0 C1.32 0 2.64 0 4 0 C4 0.66 4 1.32 4 2 C4.66 2 5.32 2 6 2 C6 3.32 6 4.64 6 6 C5.34 6 4.68 6 4 6 C4 8.64 4 11.28 4 14 C3.34 14 2.68 14 2 14 C2 15.32 2 16.64 2 18 C1.34 18 0.68 18 0 18 C0 18.66 0 19.32 0 20 C-0.66 20 -1.32 20 -2 20 C-2 21.32 -2 22.64 -2 24 C-2.66 24 -3.32 24 -4 24 C-4 24.66 -4 25.32 -4 26 C-4.66 26 -5.32 26 -6 26 C-6 26.66 -6 27.32 -6 28 C-7.32 28 -8.64 28 -10 28 C-10 29.32 -10 30.64 -10 32 C-9.34 32 -8.68 32 -8 32 C-8 33.98 -8 35.96 -8 38 C-8.66 38 -9.32 38 -10 38 C-10 38.66 -10 39.32 -10 40 C-13.3 40 -16.6 40 -20 40 C-20 40.66 -20 41.32 -20 42 C-20.66 42 -21.32 42 -22 42 C-22 42.66 -22 43.32 -22 44 C-23.32 44 -24.64 44 -26 44 C-26 44.66 -26 45.32 -26 46 C-27.32 46 -28.64 46 -30 46 C-30 46.66 -30 47.32 -30 48 C-35.28 48 -40.56 48 -46 48 C-46 47.34 -46 46.68 -46 46 C-47.32 46 -48.64 46 -50 46 C-50 45.34 -50 44.68 -50 44 C-50.66 44 -51.32 44 -52 44 C-52 43.34 -52 42.68 -52 42 C-52.66 42 -53.32 42 -54 42 C-54 41.34 -54 40.68 -54 40 C-54.66 40 -55.32 40 -56 40 C-56 38.68 -56 37.36 -56 36 C-56.66 36 -57.32 36 -58 36 C-58 34.68 -58 33.36 -58 32 C-58.66 32 -59.32 32 -60 32 C-60 31.34 -60 30.68 -60 30 C-61.32 30 -62.64 30 -64 30 C-64 29.34 -64 28.68 -64 28 C-64.66 28 -65.32 28 -66 28 C-66 27.34 -66 26.68 -66 26 C-66.66 26 -67.32 26 -68 26 C-68 25.34 -68 24.68 -68 24 C-68.66 24 -69.32 24 -70 24 C-70 23.34 -70 22.68 -70 22 C-70.66 22 -71.32 22 -72 22 C-72 21.34 -72 20.68 -72 20 C-72.66 20 -73.32 20 -74 20 C-74 19.34 -74 18.68 -74 18 C-74.66 18 -75.32 18 -76 18 C-76 15.36 -76 12.72 -76 10 C-76.66 10 -77.32 10 -78 10 C-78 8.02 -78 6.04 -78 4 C-76.02 4 -74.04 4 -72 4 C-72 4.66 -72 5.32 -72 6 C-71.34 6 -70.68 6 -70 6 C-70 6.66 -70 7.32 -70 8 C-64.06 8 -58.12 8 -52 8 C-52 8.66 -52 9.32 -52 10 C-50.68 10 -49.36 10 -48 10 C-48 9.34 -48 8.68 -48 8 C-46.68 8 -45.36 8 -44 8 C-44 8.66 -44 9.32 -44 10 C-38.06 10 -32.12 10 -26 10 C-26 9.34 -26 8.68 -26 8 C-22.04 8 -18.08 8 -14 8 C-14 7.34 -14 6.68 -14 6 C-12.68 6 -11.36 6 -10 6 C-10 5.34 -10 4.68 -10 4 C-7.36 4 -4.72 4 -2 4 C-2 3.34 -2 2.68 -2 2 C-1.34 2 -0.68 2 0 2 C0 1.34 0 0.68 0 0 Z " fill="#E2768D" transform="translate(130,118)"/>
<path d="M0 0 C5.94 0 11.88 0 18 0 C18 0.66 18 1.32 18 2 C18.66 2 19.32 2 20 2 C20 2.66 20 3.32 20 4 C20.66 4 21.32 4 22 4 C22 9.94 22 15.88 22 22 C21.34 22 20.68 22 20 22 C20 22.66 20 23.32 20 24 C19.34 24 18.68 24 18 24 C18 25.32 18 26.64 18 28 C16.02 28 14.04 28 12 28 C12 29.32 12 30.64 12 32 C10.68 32 9.36 32 8 32 C8 32.66 8 33.32 8 34 C4.7 34 1.4 34 -2 34 C-2 33.34 -2 32.68 -2 32 C-2.66 32 -3.32 32 -4 32 C-4 31.34 -4 30.68 -4 30 C-2.02 30 -0.04 30 2 30 C2 29.34 2 28.68 2 28 C-1.3 28 -4.6 28 -8 28 C-8 27.34 -8 26.68 -8 26 C-11.3 26 -14.6 26 -18 26 C-18 27.32 -18 28.64 -18 30 C-17.34 30 -16.68 30 -16 30 C-16 30.66 -16 31.32 -16 32 C-15.34 32 -14.68 32 -14 32 C-14 32.66 -14 33.32 -14 34 C-12.02 34 -10.04 34 -8 34 C-8 34.66 -8 35.32 -8 36 C-6.02 36 -4.04 36 -2 36 C-2 36.66 -2 37.32 -2 38 C-1.34 38 -0.68 38 0 38 C0 38.66 0 39.32 0 40 C2.64 40 5.28 40 8 40 C8 41.32 8 42.64 8 44 C7.34 44 6.68 44 6 44 C6 44.99 6 45.98 6 47 C2.72373625 47.9821994 -0.22788119 48.11580914 -3.640625 48.09765625 C-4.71054687 48.09443359 -5.78046875 48.09121094 -6.8828125 48.08789062 C-7.99398437 48.07951172 -9.10515625 48.07113281 -10.25 48.0625 C-11.93996094 48.05573242 -11.93996094 48.05573242 -13.6640625 48.04882812 C-16.44276217 48.03705397 -19.22135409 48.0206084 -22 48 C-22 47.34 -22 46.68 -22 46 C-22.66 46 -23.32 46 -24 46 C-24 45.34 -24 44.68 -24 44 C-24.66 44 -25.32 44 -26 44 C-26 42.68 -26 41.36 -26 40 C-26.66 40 -27.32 40 -28 40 C-28 35.38 -28 30.76 -28 26 C-27.34 26 -26.68 26 -26 26 C-26 25.34 -26 24.68 -26 24 C-25.34 24 -24.68 24 -24 24 C-24 22.68 -24 21.36 -24 20 C-23.34 20 -22.68 20 -22 20 C-22 18.68 -22 17.36 -22 16 C-21.34 16 -20.68 16 -20 16 C-20 15.34 -20 14.68 -20 14 C-19.34 14 -18.68 14 -18 14 C-18 13.34 -18 12.68 -18 12 C-17.34 12 -16.68 12 -16 12 C-16 11.34 -16 10.68 -16 10 C-15.34 10 -14.68 10 -14 10 C-14 9.34 -14 8.68 -14 8 C-12.68 8 -11.36 8 -10 8 C-10 7.34 -10 6.68 -10 6 C-9.34 6 -8.68 6 -8 6 C-8 5.34 -8 4.68 -8 4 C-6.68 4 -5.36 4 -4 4 C-4 3.34 -4 2.68 -4 2 C-2.68 2 -1.36 2 0 2 C0 1.34 0 0.68 0 0 Z " fill="#A4A4A5" transform="translate(64,58)"/>
<path d="M0 0 C4.62 0 9.24 0 14 0 C14 0.66 14 1.32 14 2 C16.64 2 19.28 2 22 2 C22 2.66 22 3.32 22 4 C22.66 4 23.32 4 24 4 C24 4.66 24 5.32 24 6 C25.32 6 26.64 6 28 6 C28 6.66 28 7.32 28 8 C29.32 8 30.64 8 32 8 C32 8.66 32 9.32 32 10 C32.66 10 33.32 10 34 10 C34 10.66 34 11.32 34 12 C35.32 12 36.64 12 38 12 C38 12.66 38 13.32 38 14 C39.98 14 41.96 14 44 14 C44 15.32 44 16.64 44 18 C45.32 18 46.64 18 48 18 C48 18.66 48 19.32 48 20 C47.34 20 46.68 20 46 20 C46 20.66 46 21.32 46 22 C47.32 22 48.64 22 50 22 C50 22.66 50 23.32 50 24 C49.34 24 48.68 24 48 24 C48 30.6 48 37.2 48 44 C47.34 44 46.68 44 46 44 C46 44.66 46 45.32 46 46 C45.34 46 44.68 46 44 46 C44 46.66 44 47.32 44 48 C43.34 48 42.68 48 42 48 C42 48.66 42 49.32 42 50 C34.74 50 27.48 50 20 50 C20 49.34 20 48.68 20 48 C18.02 48 16.04 48 14 48 C14 47.34 14 46.68 14 46 C18.62 46 23.24 46 28 46 C28 45.34 28 44.68 28 44 C29.98 44 31.96 44 34 44 C34 43.34 34 42.68 34 42 C34.66 42 35.32 42 36 42 C36 41.34 36 40.68 36 40 C37.32 40 38.64 40 40 40 C40 39.34 40 38.68 40 38 C40.66 38 41.32 38 42 38 C42 35.36 42 32.72 42 30 C41.34 30 40.68 30 40 30 C40 29.34 40 28.68 40 28 C38.68 28 37.36 28 36 28 C36 28.66 36 29.32 36 30 C35.34 30 34.68 30 34 30 C34 30.66 34 31.32 34 32 C33.34 32 32.68 32 32 32 C32 32.66 32 33.32 32 34 C30.68 34 29.36 34 28 34 C28 34.66 28 35.32 28 36 C24.7 36 21.4 36 18 36 C18 35.34 18 34.68 18 34 C16.68 34 15.36 34 14 34 C14 33.34 14 32.68 14 32 C13.34 32 12.68 32 12 32 C12 31.34 12 30.68 12 30 C11.34 30 10.68 30 10 30 C10 28.68 10 27.36 10 26 C8.02 26 6.04 26 4 26 C4 29.3 4 32.6 4 36 C3.34 36 2.68 36 2 36 C2 35.34 2 34.68 2 34 C1.34 34 0.68 34 0 34 C0 32.02 0 30.04 0 28 C-0.66 28 -1.32 28 -2 28 C-2 19.42 -2 10.84 -2 2 C-1.34 2 -0.68 2 0 2 C0 1.34 0 0.68 0 0 Z " fill="#BF7385" transform="translate(104,56)"/>
<path d="M0 0 C2.64 0 5.28 0 8 0 C8 0.66 8 1.32 8 2 C8.66 2 9.32 2 10 2 C10 2.66 10 3.32 10 4 C10.66 4 11.32 4 12 4 C12 4.66 12 5.32 12 6 C12.66 6 13.32 6 14 6 C14 11.28 14 16.56 14 22 C13.34 22 12.68 22 12 22 C12 22.66 12 23.32 12 24 C11.34 24 10.68 24 10 24 C10 24.66 10 25.32 10 26 C9.34 26 8.68 26 8 26 C8 26.66 8 27.32 8 28 C7.34 28 6.68 28 6 28 C6 28.66 6 29.32 6 30 C4.68 30 3.36 30 2 30 C2 30.66 2 31.32 2 32 C1.34 32 0.68 32 0 32 C0 32.66 0 33.32 0 34 C-0.66 34 -1.32 34 -2 34 C-2 34.66 -2 35.32 -2 36 C-2.66 36 -3.32 36 -4 36 C-4 36.66 -4 37.32 -4 38 C-4.66 38 -5.32 38 -6 38 C-6 38.66 -6 39.32 -6 40 C-6.66 40 -7.32 40 -8 40 C-8 40.66 -8 41.32 -8 42 C-8.66 42 -9.32 42 -10 42 C-10 43.32 -10 44.64 -10 46 C-11.32 46 -12.64 46 -14 46 C-14 46.66 -14 47.32 -14 48 C-19.28 48 -24.56 48 -30 48 C-30 47.34 -30 46.68 -30 46 C-31.32 46 -32.64 46 -34 46 C-34 45.34 -34 44.68 -34 44 C-34.66 44 -35.32 44 -36 44 C-36 40.7 -36 37.4 -36 34 C-35.34 34 -34.68 34 -34 34 C-34 32.68 -34 31.36 -34 30 C-33.34 30 -32.68 30 -32 30 C-32 29.34 -32 28.68 -32 28 C-31.34 28 -30.68 28 -30 28 C-30 26.68 -30 25.36 -30 24 C-29.34 24 -28.68 24 -28 24 C-28 23.34 -28 22.68 -28 22 C-27.34 22 -26.68 22 -26 22 C-26 21.34 -26 20.68 -26 20 C-25.34 20 -24.68 20 -24 20 C-24 19.34 -24 18.68 -24 18 C-23.34 18 -22.68 18 -22 18 C-22 17.34 -22 16.68 -22 16 C-21.34 16 -20.68 16 -20 16 C-20 15.34 -20 14.68 -20 14 C-19.34 14 -18.68 14 -18 14 C-18 13.34 -18 12.68 -18 12 C-17.34 12 -16.68 12 -16 12 C-16 11.34 -16 10.68 -16 10 C-14.68 10 -13.36 10 -12 10 C-12 9.34 -12 8.68 -12 8 C-10.68 8 -9.36 8 -8 8 C-8 7.34 -8 6.68 -8 6 C-7.34 6 -6.68 6 -6 6 C-6 5.34 -6 4.68 -6 4 C-5.34 4 -4.68 4 -4 4 C-4 3.34 -4 2.68 -4 2 C-2.68 2 -1.36 2 0 2 C0 1.34 0 0.68 0 0 Z " fill="#9F9F9F" transform="translate(42,20)"/>
<path d="M0 0 C1.98 0 3.96 0 6 0 C6 0.66 6 1.32 6 2 C7.32 2 8.64 2 10 2 C10 2.66 10 3.32 10 4 C11.32 4 12.64 4 14 4 C14 4.66 14 5.32 14 6 C14.66 6 15.32 6 16 6 C16 6.66 16 7.32 16 8 C17.32 8 18.64 8 20 8 C20 8.66 20 9.32 20 10 C20.66 10 21.32 10 22 10 C22 10.66 22 11.32 22 12 C23.32 12 24.64 12 26 12 C26 12.66 26 13.32 26 14 C26.66 14 27.32 14 28 14 C28 14.66 28 15.32 28 16 C28.66 16 29.32 16 30 16 C30 16.66 30 17.32 30 18 C30.66 18 31.32 18 32 18 C32 18.66 32 19.32 32 20 C32.66 20 33.32 20 34 20 C34 20.66 34 21.32 34 22 C34.66 22 35.32 22 36 22 C36 22.66 36 23.32 36 24 C36.66 24 37.32 24 38 24 C38 27.96 38 31.92 38 36 C37.34 36 36.68 36 36 36 C36 36.66 36 37.32 36 38 C34.68 38 33.36 38 32 38 C32 38.66 32 39.32 32 40 C31.34 40 30.68 40 30 40 C30 40.66 30 41.32 30 42 C25.38 42 20.76 42 16 42 C16 41.34 16 40.68 16 40 C15.34 40 14.68 40 14 40 C14 39.34 14 38.68 14 38 C13.34 38 12.68 38 12 38 C12 37.34 12 36.68 12 36 C11.34 36 10.68 36 10 36 C10 35.34 10 34.68 10 34 C9.34 34 8.68 34 8 34 C8 33.34 8 32.68 8 32 C7.34 32 6.68 32 6 32 C6 31.34 6 30.68 6 30 C4.68 30 3.36 30 2 30 C2 29.34 2 28.68 2 28 C1.34 28 0.68 28 0 28 C0 27.34 0 26.68 0 26 C-0.66 26 -1.32 26 -2 26 C-2 25.34 -2 24.68 -2 24 C-3.32 24 -4.64 24 -6 24 C-6 22.68 -6 21.36 -6 20 C-6.66 20 -7.32 20 -8 20 C-8 16.04 -8 12.08 -8 8 C-7.34 8 -6.68 8 -6 8 C-6 7.34 -6 6.68 -6 6 C-5.34 6 -4.68 6 -4 6 C-4 5.34 -4 4.68 -4 4 C-3.34 4 -2.68 4 -2 4 C-2 3.34 -2 2.68 -2 2 C-1.34 2 -0.68 2 0 2 C0 1.34 0 0.68 0 0 Z " fill="#A09FA0" transform="translate(142,20)"/>
<path d="M0 0 C1.32 0 2.64 0 4 0 C4 0.66 4 1.32 4 2 C4.66 2 5.32 2 6 2 C6 3.32 6 4.64 6 6 C5.34 6 4.68 6 4 6 C4 8.64 4 11.28 4 14 C3.34 14 2.68 14 2 14 C2 15.32 2 16.64 2 18 C1.34 18 0.68 18 0 18 C0 18.66 0 19.32 0 20 C-1.32 20 -2.64 20 -4 20 C-4 18.02 -4 16.04 -4 14 C-4.66 14 -5.32 14 -6 14 C-6 13.34 -6 12.68 -6 12 C-6.66 12 -7.32 12 -8 12 C-8 11.34 -8 10.68 -8 10 C-9.32 10 -10.64 10 -12 10 C-12 10.66 -12 11.32 -12 12 C-12.66 12 -13.32 12 -14 12 C-14 12.66 -14 13.32 -14 14 C-15.32 14 -16.64 14 -18 14 C-18 14.66 -18 15.32 -18 16 C-19.32 16 -20.64 16 -22 16 C-22 16.66 -22 17.32 -22 18 C-25.96 18 -29.92 18 -34 18 C-34 22.62 -34 27.24 -34 32 C-34.66 32 -35.32 32 -36 32 C-38.74809946 27.36934423 -38.13884536 23.27612362 -38 18 C-41.3 18 -44.6 18 -48 18 C-48 17.34 -48 16.68 -48 16 C-49.98 16 -51.96 16 -54 16 C-54 15.34 -54 14.68 -54 14 C-55.98 14 -57.96 14 -60 14 C-60 13.34 -60 12.68 -60 12 C-62.64 12 -65.28 12 -68 12 C-68 12.66 -68 13.32 -68 14 C-68.66 14 -69.32 14 -70 14 C-70 15.98 -70 17.96 -70 20 C-69.34 20 -68.68 20 -68 20 C-68 20.66 -68 21.32 -68 22 C-67.34 22 -66.68 22 -66 22 C-66 22.66 -66 23.32 -66 24 C-65.34 24 -64.68 24 -64 24 C-64 24.66 -64 25.32 -64 26 C-61.36 26 -58.72 26 -56 26 C-56 27.98 -56 29.96 -56 32 C-55.34 32 -54.68 32 -54 32 C-54 33.32 -54 34.64 -54 36 C-53.34 36 -52.68 36 -52 36 C-52 36.66 -52 37.32 -52 38 C-51.34 38 -50.68 38 -50 38 C-50 38.66 -50 39.32 -50 40 C-49.34 40 -48.68 40 -48 40 C-48 40.66 -48 41.32 -48 42 C-40.74 42 -33.48 42 -26 42 C-26 41.34 -26 40.68 -26 40 C-25.34 40 -24.68 40 -24 40 C-24 39.34 -24 38.68 -24 38 C-23.34 38 -22.68 38 -22 38 C-22 37.34 -22 36.68 -22 36 C-21.34 36 -20.68 36 -20 36 C-20 34.68 -20 33.36 -20 32 C-19.34 32 -18.68 32 -18 32 C-18 30.02 -18 28.04 -18 26 C-17.34 26 -16.68 26 -16 26 C-16 24.02 -16 22.04 -16 20 C-15.34 20 -14.68 20 -14 20 C-14 23.96 -14 27.92 -14 32 C-14.66 32 -15.32 32 -16 32 C-16 33.98 -16 35.96 -16 38 C-15.34 38 -14.68 38 -14 38 C-14 37.34 -14 36.68 -14 36 C-12.68 36 -11.36 36 -10 36 C-10 37.32 -10 38.64 -10 40 C-13.3 40 -16.6 40 -20 40 C-20 40.66 -20 41.32 -20 42 C-20.66 42 -21.32 42 -22 42 C-22 42.66 -22 43.32 -22 44 C-23.32 44 -24.64 44 -26 44 C-26 44.66 -26 45.32 -26 46 C-27.32 46 -28.64 46 -30 46 C-30 46.66 -30 47.32 -30 48 C-35.28 48 -40.56 48 -46 48 C-46 47.34 -46 46.68 -46 46 C-47.32 46 -48.64 46 -50 46 C-50 45.34 -50 44.68 -50 44 C-50.66 44 -51.32 44 -52 44 C-52 43.34 -52 42.68 -52 42 C-52.66 42 -53.32 42 -54 42 C-54 41.34 -54 40.68 -54 40 C-54.66 40 -55.32 40 -56 40 C-56 38.68 -56 37.36 -56 36 C-56.66 36 -57.32 36 -58 36 C-58 34.68 -58 33.36 -58 32 C-58.66 32 -59.32 32 -60 32 C-60 31.34 -60 30.68 -60 30 C-61.32 30 -62.64 30 -64 30 C-64 29.34 -64 28.68 -64 28 C-64.66 28 -65.32 28 -66 28 C-66 27.34 -66 26.68 -66 26 C-66.66 26 -67.32 26 -68 26 C-68 25.34 -68 24.68 -68 24 C-68.66 24 -69.32 24 -70 24 C-70 23.34 -70 22.68 -70 22 C-70.66 22 -71.32 22 -72 22 C-72 21.34 -72 20.68 -72 20 C-72.66 20 -73.32 20 -74 20 C-74 19.34 -74 18.68 -74 18 C-74.66 18 -75.32 18 -76 18 C-76 15.36 -76 12.72 -76 10 C-76.66 10 -77.32 10 -78 10 C-78 8.02 -78 6.04 -78 4 C-76.02 4 -74.04 4 -72 4 C-72 4.66 -72 5.32 -72 6 C-71.34 6 -70.68 6 -70 6 C-70 6.66 -70 7.32 -70 8 C-64.06 8 -58.12 8 -52 8 C-52 8.66 -52 9.32 -52 10 C-50.68 10 -49.36 10 -48 10 C-48 9.34 -48 8.68 -48 8 C-46.68 8 -45.36 8 -44 8 C-44 8.66 -44 9.32 -44 10 C-38.06 10 -32.12 10 -26 10 C-26 9.34 -26 8.68 -26 8 C-22.04 8 -18.08 8 -14 8 C-14 7.34 -14 6.68 -14 6 C-12.68 6 -11.36 6 -10 6 C-10 5.34 -10 4.68 -10 4 C-7.36 4 -4.72 4 -2 4 C-2 3.34 -2 2.68 -2 2 C-1.34 2 -0.68 2 0 2 C0 1.34 0 0.68 0 0 Z " fill="#6D555B" transform="translate(130,118)"/>
<path d="M0 0 C1.32 0 2.64 0 4 0 C4 0.66 4 1.32 4 2 C4.66 2 5.32 2 6 2 C6 7.94 6 13.88 6 20 C5.34 20 4.68 20 4 20 C4 20.66 4 21.32 4 22 C3.34 22 2.68 22 2 22 C2 23.32 2 24.64 2 26 C0.02 26 -1.96 26 -4 26 C-4 27.32 -4 28.64 -4 30 C-5.32 30 -6.64 30 -8 30 C-8 30.66 -8 31.32 -8 32 C-11.3 32 -14.6 32 -18 32 C-18 31.34 -18 30.68 -18 30 C-18.66 30 -19.32 30 -20 30 C-20 29.34 -20 28.68 -20 28 C-18.02 28 -16.04 28 -14 28 C-14 27.34 -14 26.68 -14 26 C-17.3 26 -20.6 26 -24 26 C-24 25.34 -24 24.68 -24 24 C-27.3 24 -30.6 24 -34 24 C-34 25.32 -34 26.64 -34 28 C-33.34 28 -32.68 28 -32 28 C-32 28.66 -32 29.32 -32 30 C-31.34 30 -30.68 30 -30 30 C-30 30.66 -30 31.32 -30 32 C-28.02 32 -26.04 32 -24 32 C-24 32.66 -24 33.32 -24 34 C-22.02 34 -20.04 34 -18 34 C-18 34.66 -18 35.32 -18 36 C-17.34 36 -16.68 36 -16 36 C-16 36.66 -16 37.32 -16 38 C-13.36 38 -10.72 38 -8 38 C-8 39.32 -8 40.64 -8 42 C-8.66 42 -9.32 42 -10 42 C-10 42.66 -10 43.32 -10 44 C-11.32 44 -12.64 44 -14 44 C-14 43.34 -14 42.68 -14 42 C-14.66 42 -15.32 42 -16 42 C-16 41.34 -16 40.68 -16 40 C-17.32 40 -18.64 40 -20 40 C-20 39.34 -20 38.68 -20 38 C-20.66 38 -21.32 38 -22 38 C-22 37.34 -22 36.68 -22 36 C-24.64 36 -27.28 36 -30 36 C-30 35.34 -30 34.68 -30 34 C-31.32 34 -32.64 34 -34 34 C-34 33.34 -34 32.68 -34 32 C-34.66 32 -35.32 32 -36 32 C-36 30.68 -36 29.36 -36 28 C-36.66 28 -37.32 28 -38 28 C-38 25.36 -38 22.72 -38 20 C-37.34 20 -36.68 20 -36 20 C-36 18.68 -36 17.36 -36 16 C-32.7 16 -29.4 16 -26 16 C-26 16.66 -26 17.32 -26 18 C-18.74 18 -11.48 18 -4 18 C-4 17.34 -4 16.68 -4 16 C-3.34 16 -2.68 16 -2 16 C-2 14.02 -2 12.04 -2 10 C-1.34 10 -0.68 10 0 10 C0 9.34 0 8.68 0 8 C0.66 8 1.32 8 2 8 C2 6.68 2 5.36 2 4 C1.34 4 0.68 4 0 4 C0 2.68 0 1.36 0 0 Z " fill="#504E4F" transform="translate(80,60)"/>
<path d="M0 0 C6.6 0 13.2 0 20 0 C20 0.66 20 1.32 20 2 C23.96 2 27.92 2 32 2 C32 3.32 32 4.64 32 6 C32.66 6 33.32 6 34 6 C34 6.66 34 7.32 34 8 C35.98 8 37.96 8 40 8 C40 8.66 40 9.32 40 10 C39.34 10 38.68 10 38 10 C38 16.6 38 23.2 38 30 C37.34 30 36.68 30 36 30 C36 30.66 36 31.32 36 32 C35.34 32 34.68 32 34 32 C34 32.66 34 33.32 34 34 C33.34 34 32.68 34 32 34 C32 34.66 32 35.32 32 36 C24.74 36 17.48 36 10 36 C10 35.34 10 34.68 10 34 C8.02 34 6.04 34 4 34 C4 33.34 4 32.68 4 32 C8.62 32 13.24 32 18 32 C18 31.34 18 30.68 18 30 C19.98 30 21.96 30 24 30 C24 29.34 24 28.68 24 28 C24.66 28 25.32 28 26 28 C26 27.34 26 26.68 26 26 C27.32 26 28.64 26 30 26 C30 25.34 30 24.68 30 24 C30.66 24 31.32 24 32 24 C32 21.36 32 18.72 32 16 C31.34 16 30.68 16 30 16 C30 14.68 30 13.36 30 12 C29.34 12 28.68 12 28 12 C28 11.34 28 10.68 28 10 C27.34 10 26.68 10 26 10 C26 9.34 26 8.68 26 8 C24.68 8 23.36 8 22 8 C22 8.66 22 9.32 22 10 C21.34 10 20.68 10 20 10 C20 10.66 20 11.32 20 12 C19.34 12 18.68 12 18 12 C18 12.66 18 13.32 18 14 C17.34 14 16.68 14 16 14 C16 14.66 16 15.32 16 16 C14.68 16 13.36 16 12 16 C12 13.36 12 10.72 12 8 C6.72 8 1.44 8 -4 8 C-4 6.68 -4 5.36 -4 4 C-3.34 4 -2.68 4 -2 4 C-2 3.34 -2 2.68 -2 2 C-1.34 2 -0.68 2 0 2 C0 1.34 0 0.68 0 0 Z " fill="#4A4748" transform="translate(114,70)"/>
<path d="M0 0 C0.66 0 1.32 0 2 0 C2 0.66 2 1.32 2 2 C3.32 2 4.64 2 6 2 C6 3.32 6 4.64 6 6 C6.66 6 7.32 6 8 6 C8 6.66 8 7.32 8 8 C8.66 8 9.32 8 10 8 C10 8.66 10 9.32 10 10 C10.66 10 11.32 10 12 10 C12 10.66 12 11.32 12 12 C14.64 12 17.28 12 20 12 C20 13.98 20 15.96 20 18 C20.66 18 21.32 18 22 18 C22 19.32 22 20.64 22 22 C22.66 22 23.32 22 24 22 C24 22.66 24 23.32 24 24 C24.66 24 25.32 24 26 24 C26 24.66 26 25.32 26 26 C26.66 26 27.32 26 28 26 C28 26.66 28 27.32 28 28 C35.26 28 42.52 28 50 28 C50 27.34 50 26.68 50 26 C50.66 26 51.32 26 52 26 C52 25.34 52 24.68 52 24 C52.66 24 53.32 24 54 24 C54 23.34 54 22.68 54 22 C54.66 22 55.32 22 56 22 C56 20.68 56 19.36 56 18 C56.66 18 57.32 18 58 18 C58 16.02 58 14.04 58 12 C58.66 12 59.32 12 60 12 C60 10.02 60 8.04 60 6 C60.66 6 61.32 6 62 6 C62 9.96 62 13.92 62 18 C61.34 18 60.68 18 60 18 C60 19.98 60 21.96 60 24 C60.66 24 61.32 24 62 24 C62 23.34 62 22.68 62 22 C63.32 22 64.64 22 66 22 C66 23.32 66 24.64 66 26 C62.7 26 59.4 26 56 26 C56 26.66 56 27.32 56 28 C55.34 28 54.68 28 54 28 C54 28.66 54 29.32 54 30 C52.68 30 51.36 30 50 30 C50 30.66 50 31.32 50 32 C48.68 32 47.36 32 46 32 C46 32.66 46 33.32 46 34 C40.72 34 35.44 34 30 34 C30 33.34 30 32.68 30 32 C28.68 32 27.36 32 26 32 C26 31.34 26 30.68 26 30 C25.34 30 24.68 30 24 30 C24 29.34 24 28.68 24 28 C23.34 28 22.68 28 22 28 C22 27.34 22 26.68 22 26 C21.34 26 20.68 26 20 26 C20 24.68 20 23.36 20 22 C19.34 22 18.68 22 18 22 C18 20.68 18 19.36 18 18 C17.34 18 16.68 18 16 18 C16 17.34 16 16.68 16 16 C14.68 16 13.36 16 12 16 C12 15.34 12 14.68 12 14 C11.34 14 10.68 14 10 14 C10 13.34 10 12.68 10 12 C9.34 12 8.68 12 8 12 C8 11.34 8 10.68 8 10 C7.34 10 6.68 10 6 10 C6 9.34 6 8.68 6 8 C5.34 8 4.68 8 4 8 C4 7.34 4 6.68 4 6 C3.34 6 2.68 6 2 6 C2 5.34 2 4.68 2 4 C1.34 4 0.68 4 0 4 C0 2.68 0 1.36 0 0 Z " fill="#856A71" transform="translate(54,132)"/>
<path d="M0 0 C0.66 0 1.32 0 2 0 C2.05434116 2.5419589 2.0938339 5.08273682 2.125 7.625 C2.14175781 8.33785156 2.15851563 9.05070312 2.17578125 9.78515625 C2.21684602 14.2612164 1.69086567 17.77949278 0 22 C-0.66 22 -1.32 22 -2 22 C-2 23.98 -2 25.96 -2 28 C-2.66 28 -3.32 28 -4 28 C-4 29.32 -4 30.64 -4 32 C-4.66 32 -5.32 32 -6 32 C-6 32.66 -6 33.32 -6 34 C-6.66 34 -7.32 34 -8 34 C-8 34.66 -8 35.32 -8 36 C-8.66 36 -9.32 36 -10 36 C-10 36.66 -10 37.32 -10 38 C-11.32 38 -12.64 38 -14 38 C-14 36.68 -14 35.36 -14 34 C-16.64 34 -19.28 34 -22 34 C-22 33.34 -22 32.68 -22 32 C-22.66 32 -23.32 32 -24 32 C-24 31.34 -24 30.68 -24 30 C-25.98 30 -27.96 30 -30 30 C-30 29.34 -30 28.68 -30 28 C-31.98 28 -33.96 28 -36 28 C-36 27.34 -36 26.68 -36 26 C-36.66 26 -37.32 26 -38 26 C-38 25.34 -38 24.68 -38 24 C-38.66 24 -39.32 24 -40 24 C-40 22.68 -40 21.36 -40 20 C-36.7 20 -33.4 20 -30 20 C-30 20.66 -30 21.32 -30 22 C-26.7 22 -23.4 22 -20 22 C-20 22.66 -20 23.32 -20 24 C-21.98 24 -23.96 24 -26 24 C-26 24.66 -26 25.32 -26 26 C-25.34 26 -24.68 26 -24 26 C-24 26.66 -24 27.32 -24 28 C-20.7 28 -17.4 28 -14 28 C-14 27.34 -14 26.68 -14 26 C-12.68 26 -11.36 26 -10 26 C-10 24.68 -10 23.36 -10 22 C-8.02 22 -6.04 22 -4 22 C-4 20.68 -4 19.36 -4 18 C-3.34 18 -2.68 18 -2 18 C-2 17.34 -2 16.68 -2 16 C-1.34 16 -0.68 16 0 16 C0 10.72 0 5.44 0 0 Z " fill="#E5DCE0" transform="translate(86,64)"/>
<path d="M0 0 C2.64 0 5.28 0 8 0 C8 0.66 8 1.32 8 2 C10.64 2 13.28 2 16 2 C16 2.66 16 3.32 16 4 C16.66 4 17.32 4 18 4 C18 4.66 18 5.32 18 6 C19.32 6 20.64 6 22 6 C22 6.66 22 7.32 22 8 C23.32 8 24.64 8 26 8 C26 8.66 26 9.32 26 10 C26.66 10 27.32 10 28 10 C28 10.66 28 11.32 28 12 C29.32 12 30.64 12 32 12 C32 12.66 32 13.32 32 14 C33.98 14 35.96 14 38 14 C38 15.32 38 16.64 38 18 C39.32 18 40.64 18 42 18 C42 18.66 42 19.32 42 20 C41.34 20 40.68 20 40 20 C40 20.66 40 21.32 40 22 C39.34 22 38.68 22 38 22 C38 21.34 38 20.68 38 20 C37.34 20 36.68 20 36 20 C36 18.68 36 17.36 36 16 C32.04 16 28.08 16 24 16 C24 15.34 24 14.68 24 14 C15.42 14 6.84 14 -2 14 C-2 11.36 -2 8.72 -2 6 C-0.02 6 1.96 6 4 6 C4 4.68 4 3.36 4 2 C2.68 2 1.36 2 0 2 C0 1.34 0 0.68 0 0 Z " fill="#9E9E9E" transform="translate(110,56)"/>
<path d="M0 0 C1.32 0 2.64 0 4 0 C4 0.66 4 1.32 4 2 C4.66 2 5.32 2 6 2 C6 2.66 6 3.32 6 4 C6.66 4 7.32 4 8 4 C8 5.98 8 7.96 8 10 C8.66 10 9.32 10 10 10 C10 11.32 10 12.64 10 14 C9.34 14 8.68 14 8 14 C8 14.66 8 15.32 8 16 C7.34 16 6.68 16 6 16 C6 16.66 6 17.32 6 18 C4.68 18 3.36 18 2 18 C2 19.32 2 20.64 2 22 C2.66 22 3.32 22 4 22 C4 23.98 4 25.96 4 28 C3.34 28 2.68 28 2 28 C2 27.34 2 26.68 2 26 C0.68 26 -0.64 26 -2 26 C-2 26.66 -2 27.32 -2 28 C-2.66 28 -3.32 28 -4 28 C-4 26.02 -4 24.04 -4 22 C-3.34 22 -2.68 22 -2 22 C-2 18.04 -2 14.08 -2 10 C-2.66 10 -3.32 10 -4 10 C-4 11.98 -4 13.96 -4 16 C-4.66 16 -5.32 16 -6 16 C-6 13.36 -6 10.72 -6 8 C-7.32 8 -8.64 8 -10 8 C-10 7.34 -10 6.68 -10 6 C-8.68 6 -7.36 6 -6 6 C-6 5.34 -6 4.68 -6 4 C-4.68 4 -3.36 4 -2 4 C-2 3.34 -2 2.68 -2 2 C-1.34 2 -0.68 2 0 2 C0 1.34 0 0.68 0 0 Z " fill="#DA7389" transform="translate(118,128)"/>
<path d="M0 0 C1.32 0 2.64 0 4 0 C4 0.66 4 1.32 4 2 C3.34 2 2.68 2 2 2 C2 8.6 2 15.2 2 22 C1.34 22 0.68 22 0 22 C0 22.66 0 23.32 0 24 C-0.66 24 -1.32 24 -2 24 C-2 24.66 -2 25.32 -2 26 C-2.66 26 -3.32 26 -4 26 C-4 26.66 -4 27.32 -4 28 C-11.26 28 -18.52 28 -26 28 C-26 27.34 -26 26.68 -26 26 C-27.98 26 -29.96 26 -32 26 C-32 25.34 -32 24.68 -32 24 C-27.38 24 -22.76 24 -18 24 C-18 23.34 -18 22.68 -18 22 C-16.02 22 -14.04 22 -12 22 C-12 21.34 -12 20.68 -12 20 C-11.34 20 -10.68 20 -10 20 C-10 19.34 -10 18.68 -10 18 C-8.68 18 -7.36 18 -6 18 C-6 17.34 -6 16.68 -6 16 C-5.34 16 -4.68 16 -4 16 C-4 14.02 -4 12.04 -4 10 C-3.34 10 -2.68 10 -2 10 C-2 10.66 -2 11.32 -2 12 C-1.34 12 -0.68 12 0 12 C0 8.04 0 4.08 0 0 Z " fill="#A7A6A7" transform="translate(150,78)"/>
<path d="M0 0 C1.98 0 3.96 0 6 0 C6 0.66 6 1.32 6 2 C7.32 2 8.64 2 10 2 C10 3.32 10 4.64 10 6 C8.02 6 6.04 6 4 6 C4 8.64 4 11.28 4 14 C5.98 14 7.96 14 10 14 C10 14.66 10 15.32 10 16 C9.34 16 8.68 16 8 16 C8 16.66 8 17.32 8 18 C7.34 18 6.68 18 6 18 C6 19.32 6 20.64 6 22 C7.32 22 8.64 22 10 22 C10 22.66 10 23.32 10 24 C8.68 24 7.36 24 6 24 C6 24.66 6 25.32 6 26 C5.34 26 4.68 26 4 26 C4 29.3 4 32.6 4 36 C3.34 36 2.68 36 2 36 C2 35.34 2 34.68 2 34 C1.34 34 0.68 34 0 34 C0 32.02 0 30.04 0 28 C-0.66 28 -1.32 28 -2 28 C-2 19.42 -2 10.84 -2 2 C-1.34 2 -0.68 2 0 2 C0 1.34 0 0.68 0 0 Z " fill="#636363" transform="translate(104,56)"/>
<path d="M0 0 C7.92 0 15.84 0 24 0 C24 1.98 24 3.96 24 6 C23.34 6 22.68 6 22 6 C22 6.66 22 7.32 22 8 C20.68 8 19.36 8 18 8 C18 8.66 18 9.32 18 10 C17.34 10 16.68 10 16 10 C16 10.66 16 11.32 16 12 C12.7 12 9.4 12 6 12 C6 11.34 6 10.68 6 10 C4.68 10 3.36 10 2 10 C2 9.34 2 8.68 2 8 C1.34 8 0.68 8 0 8 C0 5.36 0 2.72 0 0 Z " fill="#AAAAAA" transform="translate(84,104)"/>
<path d="M0 0 C1.32 0 2.64 0 4 0 C4 0.66 4 1.32 4 2 C4.66 2 5.32 2 6 2 C6 3.32 6 4.64 6 6 C5.34 6 4.68 6 4 6 C4 8.64 4 11.28 4 14 C3.34 14 2.68 14 2 14 C2 15.32 2 16.64 2 18 C1.34 18 0.68 18 0 18 C0 18.66 0 19.32 0 20 C-1.32 20 -2.64 20 -4 20 C-4 18.02 -4 16.04 -4 14 C-4.66 14 -5.32 14 -6 14 C-6 13.34 -6 12.68 -6 12 C-6.66 12 -7.32 12 -8 12 C-8 11.34 -8 10.68 -8 10 C-9.32 10 -10.64 10 -12 10 C-12 10.66 -12 11.32 -12 12 C-12.66 12 -13.32 12 -14 12 C-14 12.66 -14 13.32 -14 14 C-15.32 14 -16.64 14 -18 14 C-18 13.34 -18 12.68 -18 12 C-17.34 12 -16.68 12 -16 12 C-16 11.34 -16 10.68 -16 10 C-17.98 10 -19.96 10 -22 10 C-22 9.34 -22 8.68 -22 8 C-19.36 8 -16.72 8 -14 8 C-14 7.34 -14 6.68 -14 6 C-12.68 6 -11.36 6 -10 6 C-10 5.34 -10 4.68 -10 4 C-7.36 4 -4.72 4 -2 4 C-2 3.34 -2 2.68 -2 2 C-1.34 2 -0.68 2 0 2 C0 1.34 0 0.68 0 0 Z " fill="#525051" transform="translate(130,118)"/>
<path d="M0 0 C0.66 0 1.32 0 2 0 C2 0.66 2 1.32 2 2 C3.32 2 4.64 2 6 2 C6 1.34 6 0.68 6 0 C7.32 0 8.64 0 10 0 C10 0.66 10 1.32 10 2 C15.94 2 21.88 2 28 2 C28 1.34 28 0.68 28 0 C29.32 0 30.64 0 32 0 C32 0.66 32 1.32 32 2 C33.98 2 35.96 2 38 2 C38 2.66 38 3.32 38 4 C37.34 4 36.68 4 36 4 C36 4.66 36 5.32 36 6 C25.44 6 14.88 6 4 6 C4 5.01 4 4.02 4 3 C1.36 3.33 -1.28 3.66 -4 4 C-4 3.34 -4 2.68 -4 2 C-2.68 2 -1.36 2 0 2 C0 1.34 0 0.68 0 0 Z " fill="#8F8E90" transform="translate(76,126)"/>
<path d="M0 0 C0.66 0 1.32 0 2 0 C2 3.96 2 7.92 2 12 C1.34 12 0.68 12 0 12 C0 13.98 0 15.96 0 18 C0.66 18 1.32 18 2 18 C2 17.34 2 16.68 2 16 C3.32 16 4.64 16 6 16 C6 17.32 6 18.64 6 20 C2.7 20 -0.6 20 -4 20 C-4 20.66 -4 21.32 -4 22 C-4.66 22 -5.32 22 -6 22 C-6 22.66 -6 23.32 -6 24 C-7.32 24 -8.64 24 -10 24 C-10 24.66 -10 25.32 -10 26 C-15.94 26 -21.88 26 -28 26 C-28 25.34 -28 24.68 -28 24 C-23.38 24 -18.76 24 -14 24 C-14 23.34 -14 22.68 -14 22 C-12.68 22 -11.36 22 -10 22 C-10 21.34 -10 20.68 -10 20 C-9.34 20 -8.68 20 -8 20 C-8 19.34 -8 18.68 -8 18 C-7.34 18 -6.68 18 -6 18 C-6 17.34 -6 16.68 -6 16 C-5.34 16 -4.68 16 -4 16 C-4 14.68 -4 13.36 -4 12 C-3.34 12 -2.68 12 -2 12 C-2 10.02 -2 8.04 -2 6 C-1.34 6 -0.68 6 0 6 C0 4.02 0 2.04 0 0 Z " fill="#575052" transform="translate(114,138)"/>
<path d="M0 0 C0.66 0 1.32 0 2 0 C2.05434116 2.5419589 2.0938339 5.08273682 2.125 7.625 C2.14175781 8.33785156 2.15851563 9.05070312 2.17578125 9.78515625 C2.21684602 14.2612164 1.69086567 17.77949278 0 22 C-0.66 22 -1.32 22 -2 22 C-2 23.98 -2 25.96 -2 28 C-2.66 28 -3.32 28 -4 28 C-4 29.32 -4 30.64 -4 32 C-4.66 32 -5.32 32 -6 32 C-6 32.66 -6 33.32 -6 34 C-6.66 34 -7.32 34 -8 34 C-8 34.66 -8 35.32 -8 36 C-8.66 36 -9.32 36 -10 36 C-10 36.66 -10 37.32 -10 38 C-11.32 38 -12.64 38 -14 38 C-14 36.68 -14 35.36 -14 34 C-16.64 34 -19.28 34 -22 34 C-22 33.34 -22 32.68 -22 32 C-17.38 32 -12.76 32 -8 32 C-8 29.36 -8 26.72 -8 24 C-8.66 24 -9.32 24 -10 24 C-10 23.34 -10 22.68 -10 22 C-8.02 22 -6.04 22 -4 22 C-4 20.68 -4 19.36 -4 18 C-3.34 18 -2.68 18 -2 18 C-2 17.34 -2 16.68 -2 16 C-1.34 16 -0.68 16 0 16 C0 10.72 0 5.44 0 0 Z " fill="#D2D0D3" transform="translate(86,64)"/>
<path d="M0 0 C1.32 0 2.64 0 4 0 C4 0.66 4 1.32 4 2 C4.66 2 5.32 2 6 2 C6 7.94 6 13.88 6 20 C5.34 20 4.68 20 4 20 C4 20.66 4 21.32 4 22 C3.34 22 2.68 22 2 22 C2 21.34 2 20.68 2 20 C0.02 20 -1.96 20 -4 20 C-4 18.68 -4 17.36 -4 16 C-3.34 16 -2.68 16 -2 16 C-2 14.02 -2 12.04 -2 10 C-1.34 10 -0.68 10 0 10 C0 9.34 0 8.68 0 8 C0.66 8 1.32 8 2 8 C2 6.68 2 5.36 2 4 C1.34 4 0.68 4 0 4 C0 2.68 0 1.36 0 0 Z " fill="#9B9B9C" transform="translate(80,60)"/>
<path d="M0 0 C1.98 0 3.96 0 6 0 C6 0.66 6 1.32 6 2 C6.66 2 7.32 2 8 2 C8 2.66 8 3.32 8 4 C13.28 4 18.56 4 24 4 C24 4.66 24 5.32 24 6 C22.68 6 21.36 6 20 6 C20 6.66 20 7.32 20 8 C16.7 8 13.4 8 10 8 C10 8.66 10 9.32 10 10 C9.34 10 8.68 10 8 10 C8 10.66 8 11.32 8 12 C6.68 12 5.36 12 4 12 C4 11.34 4 10.68 4 10 C3.34 10 2.68 10 2 10 C2 8.68 2 7.36 2 6 C1.34 6 0.68 6 0 6 C0 4.02 0 2.04 0 0 Z " fill="#4C4B4B" transform="translate(52,122)"/>
<path d="M0 0 C0.66 0 1.32 0 2 0 C2 1.32 2 2.64 2 4 C2.66 4 3.32 4 4 4 C4 4.66 4 5.32 4 6 C4.66 6 5.32 6 6 6 C6 6.66 6 7.32 6 8 C7.98 8 9.96 8 12 8 C12 8.66 12 9.32 12 10 C13.98 10 15.96 10 18 10 C18 10.66 18 11.32 18 12 C18.66 12 19.32 12 20 12 C20 12.66 20 13.32 20 14 C22.64 14 25.28 14 28 14 C28 15.32 28 16.64 28 18 C27.34 18 26.68 18 26 18 C26 18.66 26 19.32 26 20 C24.68 20 23.36 20 22 20 C22 19.34 22 18.68 22 18 C21.34 18 20.68 18 20 18 C20 17.34 20 16.68 20 16 C18.68 16 17.36 16 16 16 C16 15.34 16 14.68 16 14 C15.34 14 14.68 14 14 14 C14 13.34 14 12.68 14 12 C11.36 12 8.72 12 6 12 C6 11.34 6 10.68 6 10 C4.68 10 3.36 10 2 10 C2 9.34 2 8.68 2 8 C1.34 8 0.68 8 0 8 C0 6.68 0 5.36 0 4 C-0.66 4 -1.32 4 -2 4 C-2 3.34 -2 2.68 -2 2 C-1.34 2 -0.68 2 0 2 C0 1.34 0 0.68 0 0 Z " fill="#646465" transform="translate(44,84)"/>
<path d="M0 0 C0.66 0 1.32 0 2 0 C2 0.66 2 1.32 2 2 C3.32 2 4.64 2 6 2 C6 2.66 6 3.32 6 4 C4.68 4 3.36 4 2 4 C2 4.66 2 5.32 2 6 C1.34 6 0.68 6 0 6 C0 6.66 0 7.32 0 8 C-1.32 8 -2.64 8 -4 8 C-4 8.66 -4 9.32 -4 10 C-4.66 10 -5.32 10 -6 10 C-6 10.66 -6 11.32 -6 12 C-6.66 12 -7.32 12 -8 12 C-8 12.66 -8 13.32 -8 14 C-8.66 14 -9.32 14 -10 14 C-10 14.66 -10 15.32 -10 16 C-10.66 16 -11.32 16 -12 16 C-12 16.66 -12 17.32 -12 18 C-12.66 18 -13.32 18 -14 18 C-14 19.32 -14 20.64 -14 22 C-14.66 22 -15.32 22 -16 22 C-16 22.66 -16 23.32 -16 24 C-16.66 24 -17.32 24 -18 24 C-18 23.34 -18 22.68 -18 22 C-18.66 22 -19.32 22 -20 22 C-20 20.68 -20 19.36 -20 18 C-19.34 18 -18.68 18 -18 18 C-18 17.34 -18 16.68 -18 16 C-17.34 16 -16.68 16 -16 16 C-16 15.34 -16 14.68 -16 14 C-15.34 14 -14.68 14 -14 14 C-14 13.34 -14 12.68 -14 12 C-13.34 12 -12.68 12 -12 12 C-12 11.34 -12 10.68 -12 10 C-11.34 10 -10.68 10 -10 10 C-10 9.34 -10 8.68 -10 8 C-9.34 8 -8.68 8 -8 8 C-8 7.34 -8 6.68 -8 6 C-6.68 6 -5.36 6 -4 6 C-4 5.34 -4 4.68 -4 4 C-3.34 4 -2.68 4 -2 4 C-2 3.34 -2 2.68 -2 2 C-1.34 2 -0.68 2 0 2 C0 1.34 0 0.68 0 0 Z " fill="#5A595A" transform="translate(52,44)"/>
<path d="M0 0 C0.66 0 1.32 0 2 0 C2 1.32 2 2.64 2 4 C3.32 4 4.64 4 6 4 C6 4.66 6 5.32 6 6 C6.66 6 7.32 6 8 6 C8 6.66 8 7.32 8 8 C8.66 8 9.32 8 10 8 C10 8.66 10 9.32 10 10 C11.32 10 12.64 10 14 10 C14 10.66 14 11.32 14 12 C14.66 12 15.32 12 16 12 C16 12.66 16 13.32 16 14 C16.66 14 17.32 14 18 14 C18 14.66 18 15.32 18 16 C18.66 16 19.32 16 20 16 C20 16.66 20 17.32 20 18 C20.66 18 21.32 18 22 18 C22 18.66 22 19.32 22 20 C22.66 20 23.32 20 24 20 C24 20.66 24 21.32 24 22 C23.34 22 22.68 22 22 22 C22 22.66 22 23.32 22 24 C21.34 24 20.68 24 20 24 C20 23.34 20 22.68 20 22 C19.34 22 18.68 22 18 22 C18 21.34 18 20.68 18 20 C17.34 20 16.68 20 16 20 C16 19.34 16 18.68 16 18 C15.34 18 14.68 18 14 18 C14 17.34 14 16.68 14 16 C13.34 16 12.68 16 12 16 C12 15.34 12 14.68 12 14 C11.34 14 10.68 14 10 14 C10 13.34 10 12.68 10 12 C8.68 12 7.36 12 6 12 C6 11.34 6 10.68 6 10 C5.34 10 4.68 10 4 10 C4 9.34 4 8.68 4 8 C2.68 8 1.36 8 0 8 C0 7.34 0 6.68 0 6 C-1.32 6 -2.64 6 -4 6 C-4 5.34 -4 4.68 -4 4 C-2.68 4 -1.36 4 0 4 C0 2.68 0 1.36 0 0 Z " fill="#5A5A5B" transform="translate(134,40)"/>
<path d="M0 0 C0.66 0 1.32 0 2 0 C2 1.32 2 2.64 2 4 C0.02 4 -1.96 4 -4 4 C-4 5.32 -4 6.64 -4 8 C-5.32 8 -6.64 8 -8 8 C-8 8.66 -8 9.32 -8 10 C-11.3 10 -14.6 10 -18 10 C-18 9.34 -18 8.68 -18 8 C-18.66 8 -19.32 8 -20 8 C-20 7.34 -20 6.68 -20 6 C-18.02 6 -16.04 6 -14 6 C-14 5.34 -14 4.68 -14 4 C-17.3 4 -20.6 4 -24 4 C-24 3.34 -24 2.68 -24 2 C-16.08 2 -8.16 2 0 2 C0 1.34 0 0.68 0 0 Z " fill="#806A71" transform="translate(80,82)"/>
<path d="M0 0 C0.66 0 1.32 0 2 0 C2 3.96 2 7.92 2 12 C2.66 12 3.32 12 4 12 C4 12.66 4 13.32 4 14 C4.66 14 5.32 14 6 14 C6 14.66 6 15.32 6 16 C5.34 16 4.68 16 4 16 C4 16.66 4 17.32 4 18 C4.66 18 5.32 18 6 18 C6 19.32 6 20.64 6 22 C5.34 22 4.68 22 4 22 C4 23.32 4 24.64 4 26 C4.66 26 5.32 26 6 26 C6 28.64 6 31.28 6 34 C5.34 34 4.68 34 4 34 C4 33.34 4 32.68 4 32 C3.34 32 2.68 32 2 32 C2 30.02 2 28.04 2 26 C1.34 26 0.68 26 0 26 C0 17.42 0 8.84 0 0 Z " fill="#A4A4A5" transform="translate(102,58)"/>
<path d="M0 0 C1.32 0 2.64 0 4 0 C4 1.32 4 2.64 4 4 C3.34 4 2.68 4 2 4 C2 4.66 2 5.32 2 6 C1.34 6 0.68 6 0 6 C0 6.66 0 7.32 0 8 C-1.32 8 -2.64 8 -4 8 C-4 9.32 -4 10.64 -4 12 C-3.34 12 -2.68 12 -2 12 C-2 13.98 -2 15.96 -2 18 C-2.66 18 -3.32 18 -4 18 C-4 17.34 -4 16.68 -4 16 C-5.32 16 -6.64 16 -8 16 C-8 16.66 -8 17.32 -8 18 C-8.66 18 -9.32 18 -10 18 C-10 16.02 -10 14.04 -10 12 C-9.34 12 -8.68 12 -8 12 C-8 9.36 -8 6.72 -8 4 C-7.67 4.66 -7.34 5.32 -7 6 C-5.35 6 -3.7 6 -2 6 C-2 5.34 -2 4.68 -2 4 C-1.34 4 -0.68 4 0 4 C0 2.68 0 1.36 0 0 Z " fill="#B27281" transform="translate(124,138)"/>
<path d="M0 0 C1.55913346 3.11826692 0.66585225 5.67073874 0 9 C-4.65244014 11.32622007 -11.0737581 9.98524838 -16 9 C-16 8.34 -16 7.68 -16 7 C-16.66 7 -17.32 7 -18 7 C-18 6.34 -18 5.68 -18 5 C-14.04 5 -10.08 5 -6 5 C-6 4.34 -6 3.68 -6 3 C-4.68 3 -3.36 3 -2 3 C-2 2.34 -2 1.68 -2 1 C-1.34 0.67 -0.68 0.34 0 0 Z " fill="#F7F7F7" transform="translate(78,87)"/>
<path d="M0 0 C1.32 0 2.64 0 4 0 C4 0.66 4 1.32 4 2 C4.66 2 5.32 2 6 2 C6 2.66 6 3.32 6 4 C6.66 4 7.32 4 8 4 C8 4.66 8 5.32 8 6 C6.68 6 5.36 6 4 6 C4 6.66 4 7.32 4 8 C3.34 8 2.68 8 2 8 C2 8.66 2 9.32 2 10 C1.34 10 0.68 10 0 10 C0 10.66 0 11.32 0 12 C-1.32 12 -2.64 12 -4 12 C-4 12.66 -4 13.32 -4 14 C-6.64 14 -9.28 14 -12 14 C-12 13.34 -12 12.68 -12 12 C-10.02 12 -8.04 12 -6 12 C-6 11.34 -6 10.68 -6 10 C-4.68 10 -3.36 10 -2 10 C-2 9.34 -2 8.68 -2 8 C-1.34 8 -0.68 8 0 8 C0 7.34 0 6.68 0 6 C0.66 6 1.32 6 2 6 C2 5.34 2 4.68 2 4 C0.68 4 -0.64 4 -2 4 C-2 3.34 -2 2.68 -2 2 C-1.34 2 -0.68 2 0 2 C0 1.34 0 0.68 0 0 Z " fill="#856D74" transform="translate(136,78)"/>
<path d="M0 0 C8.58 0 17.16 0 26 0 C26 0.66 26 1.32 26 2 C24.68 2 23.36 2 22 2 C22 2.66 22 3.32 22 4 C18.04 4 14.08 4 10 4 C10 3.34 10 2.68 10 2 C6.7 2 3.4 2 0 2 C0 1.34 0 0.68 0 0 Z " fill="#79676C" transform="translate(86,132)"/>
<path d="M0 0 C1.98 0 3.96 0 6 0 C6 0.66 6 1.32 6 2 C6.66 2 7.32 2 8 2 C8 2.66 8 3.32 8 4 C4.7 4 1.4 4 -2 4 C-2 4.66 -2 5.32 -2 6 C-7.94 6 -13.88 6 -20 6 C-20 5.34 -20 4.68 -20 4 C-15.38 4 -10.76 4 -6 4 C-6 3.34 -6 2.68 -6 2 C-4.02 2 -2.04 2 0 2 C0 1.34 0 0.68 0 0 Z " fill="#7C7B7D" transform="translate(138,98)"/>
<path d="M0 0 C1.98 0 3.96 0 6 0 C6 0.66 6 1.32 6 2 C5.34 2 4.68 2 4 2 C4 2.66 4 3.32 4 4 C3.34 4 2.68 4 2 4 C2 4.66 2 5.32 2 6 C0.68 6 -0.64 6 -2 6 C-2 6.66 -2 7.32 -2 8 C-3.98 8 -5.96 8 -8 8 C-8 8.66 -8 9.32 -8 10 C-8.66 10 -9.32 10 -10 10 C-10 9.34 -10 8.68 -10 8 C-11.32 8 -12.64 8 -14 8 C-14 7.34 -14 6.68 -14 6 C-12.68 6 -11.36 6 -10 6 C-10 5.34 -10 4.68 -10 4 C-7.36 4 -4.72 4 -2 4 C-2 3.34 -2 2.68 -2 2 C-1.34 2 -0.68 2 0 2 C0 1.34 0 0.68 0 0 Z " fill="#CA99A6" transform="translate(132,82)"/>
<path d="M0 0 C0.66 0 1.32 0 2 0 C2 0.66 2 1.32 2 2 C3.32 2 4.64 2 6 2 C6 3.32 6 4.64 6 6 C6.66 6 7.32 6 8 6 C8 6.66 8 7.32 8 8 C8.66 8 9.32 8 10 8 C10 8.66 10 9.32 10 10 C10.66 10 11.32 10 12 10 C12 10.66 12 11.32 12 12 C12.66 12 13.32 12 14 12 C14 12.66 14 13.32 14 14 C14.66 14 15.32 14 16 14 C16 14.66 16 15.32 16 16 C14.68 16 13.36 16 12 16 C12 15.34 12 14.68 12 14 C11.34 14 10.68 14 10 14 C10 13.34 10 12.68 10 12 C9.34 12 8.68 12 8 12 C8 11.34 8 10.68 8 10 C7.34 10 6.68 10 6 10 C6 9.34 6 8.68 6 8 C5.34 8 4.68 8 4 8 C4 7.34 4 6.68 4 6 C3.34 6 2.68 6 2 6 C2 5.34 2 4.68 2 4 C1.34 4 0.68 4 0 4 C0 2.68 0 1.36 0 0 Z " fill="#84767A" transform="translate(54,132)"/>
<path d="M0 0 C1.32 0 2.64 0 4 0 C4 0.66 4 1.32 4 2 C4.66 2 5.32 2 6 2 C6 5.3 6 8.6 6 12 C3.36 12 0.72 12 -2 12 C-2 11.34 -2 10.68 -2 10 C-1.34 10 -0.68 10 0 10 C0 9.34 0 8.68 0 8 C0.66 8 1.32 8 2 8 C2 6.68 2 5.36 2 4 C1.34 4 0.68 4 0 4 C0 2.68 0 1.36 0 0 Z " fill="#5D5C5E" transform="translate(80,60)"/>
<path d="M0 0 C0.66 0 1.32 0 2 0 C2.05434116 2.5419589 2.0938339 5.08273682 2.125 7.625 C2.14175781 8.33785156 2.15851563 9.05070312 2.17578125 9.78515625 C2.21684602 14.2612164 1.69086567 17.77949278 0 22 C-0.66 22 -1.32 22 -2 22 C-2 23.32 -2 24.64 -2 26 C-2.66 26 -3.32 26 -4 26 C-4 23.36 -4 20.72 -4 18 C-3.34 18 -2.68 18 -2 18 C-2 17.34 -2 16.68 -2 16 C-1.34 16 -0.68 16 0 16 C0 10.72 0 5.44 0 0 Z " fill="#B4B3B5" transform="translate(86,64)"/>
<path d="M0 0 C0.66 0 1.32 0 2 0 C2 1.32 2 2.64 2 4 C3.32 4 4.64 4 6 4 C6 4.66 6 5.32 6 6 C6.66 6 7.32 6 8 6 C9 9 9 9 8 12 C7.34 12 6.68 12 6 12 C6 11.34 6 10.68 6 10 C5.34 10 4.68 10 4 10 C4 9.34 4 8.68 4 8 C2.68 8 1.36 8 0 8 C0 7.34 0 6.68 0 6 C-1.32 6 -2.64 6 -4 6 C-4 5.34 -4 4.68 -4 4 C-2.68 4 -1.36 4 0 4 C0 2.68 0 1.36 0 0 Z " fill="#676767" transform="translate(134,40)"/>
<path d="M0 0 C0.66 0 1.32 0 2 0 C2 0.66 2 1.32 2 2 C2.66 2 3.32 2 4 2 C4 3.32 4 4.64 4 6 C3.34 6 2.68 6 2 6 C2 7.32 2 8.64 2 10 C2.66 10 3.32 10 4 10 C4 12.64 4 15.28 4 18 C3.34 18 2.68 18 2 18 C2 17.34 2 16.68 2 16 C1.34 16 0.68 16 0 16 C0 10.72 0 5.44 0 0 Z " fill="#9A999A" transform="translate(104,74)"/>
<path d="M0 0 C0.66 0 1.32 0 2 0 C2 5.28 2 10.56 2 16 C1.34 16 0.68 16 0 16 C0 19.3 0 22.6 0 26 C-0.66 26 -1.32 26 -2 26 C-1.93941406 25.29617187 -1.87882813 24.59234375 -1.81640625 23.8671875 C-1.14169719 15.91600079 -0.55346597 7.96048926 0 0 Z " fill="#BCBCBC" transform="translate(166,92)"/>
<path d="M0 0 C5.94 0 11.88 0 18 0 C18 0.66 18 1.32 18 2 C17.34 2 16.68 2 16 2 C16 2.66 16 3.32 16 4 C14.02 4 12.04 4 10 4 C10 3.34 10 2.68 10 2 C6.7 2 3.4 2 0 2 C0 1.34 0 0.68 0 0 Z " fill="#A66B7A" transform="translate(56,84)"/>
<path d="M0 0 C0.66 0 1.32 0 2 0 C2 0.66 2 1.32 2 2 C3.32 2 4.64 2 6 2 C6 2.66 6 3.32 6 4 C4.68 4 3.36 4 2 4 C2 4.66 2 5.32 2 6 C1.34 6 0.68 6 0 6 C0 6.66 0 7.32 0 8 C-2.64 8 -5.28 8 -8 8 C-8 7.34 -8 6.68 -8 6 C-6.68 6 -5.36 6 -4 6 C-4 5.34 -4 4.68 -4 4 C-3.34 4 -2.68 4 -2 4 C-2 3.34 -2 2.68 -2 2 C-1.34 2 -0.68 2 0 2 C0 1.34 0 0.68 0 0 Z " fill="#605F60" transform="translate(52,44)"/>
<path d="M0 0 C1.32 0 2.64 0 4 0 C5.36952673 2.73905345 5.12621361 4.97087332 5 8 C4.67 8.66 4.34 9.32 4 10 C2.68 10 1.36 10 0 10 C0 6.7 0 3.4 0 0 Z " fill="#E3E3E3" transform="translate(172,98)"/>
<path d="M0 0 C1.32 0 2.64 0 4 0 C4 0.66 4 1.32 4 2 C9.28 2 14.56 2 20 2 C20 2.66 20 3.32 20 4 C14.06 4 8.12 4 2 4 C2 3.34 2 2.68 2 2 C1.34 2 0.68 2 0 2 C0 1.34 0 0.68 0 0 Z " fill="#CFCFD0" transform="translate(58,122)"/>
<path d="M0 0 C1.32 0 2.64 0 4 0 C4 0.66 4 1.32 4 2 C3.34 2 2.68 2 2 2 C2 3.32 2 4.64 2 6 C3.32 6 4.64 6 6 6 C6 6.66 6 7.32 6 8 C4.68 8 3.36 8 2 8 C2 8.66 2 9.32 2 10 C1.34 10 0.68 10 0 10 C0 10.66 0 11.32 0 12 C-0.66 12 -1.32 12 -2 12 C-2 10.68 -2 9.36 -2 8 C-1.34 8 -0.68 8 0 8 C0 6.68 0 5.36 0 4 C-0.66 4 -1.32 4 -2 4 C-2 3.34 -2 2.68 -2 2 C-1.34 2 -0.68 2 0 2 C0 1.34 0 0.68 0 0 Z " fill="#676466" transform="translate(108,72)"/>
<path d="M0 0 C1.98 0 3.96 0 6 0 C6 0.66 6 1.32 6 2 C7.32 2 8.64 2 10 2 C10 2.66 10 3.32 10 4 C7.36 4 4.72 4 2 4 C2 5.98 2 7.96 2 10 C1.34 10 0.68 10 0 10 C0 6.7 0 3.4 0 0 Z " fill="#616061" transform="translate(104,56)"/>
<path d="M0 0 C3.3 0 6.6 0 10 0 C10 0.66 10 1.32 10 2 C7.36 2 4.72 2 2 2 C2 3.32 2 4.64 2 6 C1.34 6 0.68 6 0 6 C0 7.98 0 9.96 0 12 C-0.66 12 -1.32 12 -2 12 C-2 9.36 -2 6.72 -2 4 C-1.34 4 -0.68 4 0 4 C0 2.68 0 1.36 0 0 Z " fill="#8D8C8D" transform="translate(42,74)"/>
<path d="M0 0 C3.96 0 7.92 0 12 0 C12 0.66 12 1.32 12 2 C10.68 2 9.36 2 8 2 C8 2.66 8 3.32 8 4 C5.36 4 2.72 4 0 4 C0 2.68 0 1.36 0 0 Z " fill="#5A5456" transform="translate(64,126)"/>
<path d="M0 0 C1.98 0 3.96 0 6 0 C6 0.66 6 1.32 6 2 C6.66 2 7.32 2 8 2 C8 2.66 8 3.32 8 4 C4.04 4 0.08 4 -4 4 C-4 3.34 -4 2.68 -4 2 C-2.68 2 -1.36 2 0 2 C0 1.34 0 0.68 0 0 Z " fill="#6C6B6D" transform="translate(138,98)"/>
<path d="M0 0 C5.28 0 10.56 0 16 0 C16 0.66 16 1.32 16 2 C11.38 2 6.76 2 2 2 C2 2.66 2 3.32 2 4 C1.34 4 0.68 4 0 4 C0 2.68 0 1.36 0 0 Z " fill="#D4D3D5" transform="translate(116,100)"/>
<path d="M0 0 C0.66 0 1.32 0 2 0 C2 1.32 2 2.64 2 4 C2.66 4 3.32 4 4 4 C4 4.66 4 5.32 4 6 C4.66 6 5.32 6 6 6 C6 6.66 6 7.32 6 8 C5.34 8 4.68 8 4 8 C4 8.66 4 9.32 4 10 C3.34 10 2.68 10 2 10 C2 9.34 2 8.68 2 8 C1.34 8 0.68 8 0 8 C0 6.68 0 5.36 0 4 C-0.66 4 -1.32 4 -2 4 C-2 3.34 -2 2.68 -2 2 C-1.34 2 -0.68 2 0 2 C0 1.34 0 0.68 0 0 Z " fill="#6F6E71" transform="translate(44,84)"/>
<path d="M0 0 C1.32 0 2.64 0 4 0 C4 0.66 4 1.32 4 2 C4.66 2 5.32 2 6 2 C6 2.66 6 3.32 6 4 C6.66 4 7.32 4 8 4 C8 4.66 8 5.32 8 6 C6.02 6 4.04 6 2 6 C2 5.34 2 4.68 2 4 C0.68 4 -0.64 4 -2 4 C-2 3.34 -2 2.68 -2 2 C-1.34 2 -0.68 2 0 2 C0 1.34 0 0.68 0 0 Z " fill="#A27580" transform="translate(136,78)"/>
<path d="M0 0 C1.51400391 0.01740234 1.51400391 0.01740234 3.05859375 0.03515625 C4.07050781 0.04417969 5.08242187 0.05320312 6.125 0.0625 C7.29869141 0.07990234 7.29869141 0.07990234 8.49609375 0.09765625 C8.49609375 0.75765625 8.49609375 1.41765625 8.49609375 2.09765625 C7.83609375 2.09765625 7.17609375 2.09765625 6.49609375 2.09765625 C6.49609375 2.75765625 6.49609375 3.41765625 6.49609375 4.09765625 C4.51609375 4.09765625 2.53609375 4.09765625 0.49609375 4.09765625 C0.49609375 3.43765625 0.49609375 2.77765625 0.49609375 2.09765625 C-0.82390625 1.76765625 -2.14390625 1.43765625 -3.50390625 1.09765625 C-2.50390625 0.09765625 -2.50390625 0.09765625 0 0 Z " fill="#484748" transform="translate(73.50390625,79.90234375)"/>
<path d="M0 0 C0.66 0 1.32 0 2 0 C2 0.66 2 1.32 2 2 C2.66 2 3.32 2 4 2 C4 1.34 4 0.68 4 0 C5.32 0 6.64 0 8 0 C8 1.32 8 2.64 8 4 C4.7 4 1.4 4 -2 4 C-2 3.34 -2 2.68 -2 2 C-1.34 2 -0.68 2 0 2 C0 1.34 0 0.68 0 0 Z " fill="#7F686E" transform="translate(112,154)"/>
<path d="M0 0 C0.66 0 1.32 0 2 0 C2 3.96 2 7.92 2 12 C1.34 12 0.68 12 0 12 C0 11.34 0 10.68 0 10 C-0.66 10 -1.32 10 -2 10 C-2 8.68 -2 7.36 -2 6 C-1.34 6 -0.68 6 0 6 C0 4.02 0 2.04 0 0 Z " fill="#895863" transform="translate(114,138)"/>
<path d="M0 0 C1.98 0 3.96 0 6 0 C6 1.32 6 2.64 6 4 C6.66 4 7.32 4 8 4 C8 4.66 8 5.32 8 6 C8.66 6 9.32 6 10 6 C10 6.66 10 7.32 10 8 C8.68 8 7.36 8 6 8 C6 7.34 6 6.68 6 6 C5.34 6 4.68 6 4 6 C4 4.68 4 3.36 4 2 C2.68 2 1.36 2 0 2 C0 1.34 0 0.68 0 0 Z " fill="#9A838B" transform="translate(110,80)"/>
<path d="M0 0 C1.98 0 3.96 0 6 0 C6 0.66 6 1.32 6 2 C5.34 2 4.68 2 4 2 C4 2.66 4 3.32 4 4 C3.34 4 2.68 4 2 4 C2 4.66 2 5.32 2 6 C0.68 6 -0.64 6 -2 6 C-2 4.68 -2 3.36 -2 2 C-1.34 2 -0.68 2 0 2 C0 1.34 0 0.68 0 0 Z " fill="#D38395" transform="translate(132,82)"/>
<path d="M0 0 C1.98 0 3.96 0 6 0 C6 1.32 6 2.64 6 4 C5.34 4 4.68 4 4 4 C4 4.66 4 5.32 4 6 C2.68 6 1.36 6 0 6 C0 4.02 0 2.04 0 0 Z " fill="#D1C6CB" transform="translate(120,78)"/>
<path d="M0 0 C0.66 0 1.32 0 2 0 C2 1.32 2 2.64 2 4 C3.32 4 4.64 4 6 4 C6 5.32 6 6.64 6 8 C5.34 8 4.68 8 4 8 C4 7.34 4 6.68 4 6 C2.02 6 0.04 6 -2 6 C-2 4.68 -2 3.36 -2 2 C-1.34 2 -0.68 2 0 2 C0 1.34 0 0.68 0 0 Z " fill="#7A797B" transform="translate(78,74)"/>
<path d="M0 0 C0.66 0 1.32 0 2 0 C2 3.3 2 6.6 2 10 C2.66 10 3.32 10 4 10 C4 11.32 4 12.64 4 14 C3.34 14 2.68 14 2 14 C0.09391902 10.78817851 -0.22266247 8.46117397 -0.125 4.75 C-0.09792969 3.41195312 -0.09792969 3.41195312 -0.0703125 2.046875 C-0.04710938 1.37140625 -0.02390625 0.6959375 0 0 Z " fill="#A76172" transform="translate(92,136)"/>
<path d="M0 0 C0.66 0 1.32 0 2 0 C2 1.32 2 2.64 2 4 C2.66 4 3.32 4 4 4 C4 5.98 4 7.96 4 10 C3.34 10 2.68 10 2 10 C2 9.34 2 8.68 2 8 C1.34 8 0.68 8 0 8 C0 5.36 0 2.72 0 0 Z " fill="#997B83" transform="translate(118,146)"/>
<path d="M0 0 C1.32 0 2.64 0 4 0 C4 3.96 4 7.92 4 12 C3.34 12 2.68 12 2 12 C2 8.7 2 5.4 2 2 C1.34 2 0.68 2 0 2 C0 1.34 0 0.68 0 0 Z " fill="#604B50" transform="translate(92,134)"/>
<path d="M0 0 C1.32 0 2.64 0 4 0 C4 0.66 4 1.32 4 2 C6.64 2 9.28 2 12 2 C12 2.66 12 3.32 12 4 C8.7 4 5.4 4 2 4 C2 3.34 2 2.68 2 2 C1.34 2 0.68 2 0 2 C0 1.34 0 0.68 0 0 Z " fill="#908D90" transform="translate(60,88)"/>
<path d="M0 0 C0.66 0 1.32 0 2 0 C2 3.96 2 7.92 2 12 C1.34 12 0.68 12 0 12 C0 11.34 0 10.68 0 10 C-0.66 10 -1.32 10 -2 10 C-2 9.34 -2 8.68 -2 8 C-1.34 8 -0.68 8 0 8 C0 5.36 0 2.72 0 0 Z " fill="#676668" transform="translate(148,78)"/>
<path d="M0 0 C1.98 0 3.96 0 6 0 C5.67 1.32 5.34 2.64 5 4 C3.02 4 1.04 4 -1 4 C-0.67 2.68 -0.34 1.36 0 0 Z " fill="#FCFCFC" transform="translate(172,80)"/>
<path d="M0 0 C0.66 0 1.32 0 2 0 C2 1.98 2 3.96 2 6 C1.34 6 0.68 6 0 6 C0 6.66 0 7.32 0 8 C-0.66 8 -1.32 8 -2 8 C-2 6.02 -2 4.04 -2 2 C-1.34 2 -0.68 2 0 2 C0 1.34 0 0.68 0 0 Z " fill="#614B51" transform="translate(112,148)"/>
<path d="M0 0 C1.32 0 2.64 0 4 0 C4 1.32 4 2.64 4 4 C3.34 4 2.68 4 2 4 C2 4.66 2 5.32 2 6 C0.68 6 -0.64 6 -2 6 C-2 5.34 -2 4.68 -2 4 C-1.34 4 -0.68 4 0 4 C0 2.68 0 1.36 0 0 Z " fill="#7C6D71" transform="translate(124,138)"/>
<path d="M0 0 C1.32 0 2.64 0 4 0 C4 1.32 4 2.64 4 4 C3.34 4 2.68 4 2 4 C2 4.66 2 5.32 2 6 C0.68 6 -0.64 6 -2 6 C-2 5.34 -2 4.68 -2 4 C-1.34 4 -0.68 4 0 4 C0 2.68 0 1.36 0 0 Z " fill="#7A797B" transform="translate(68,98)"/>
<path d="M0 0 C0.66 0 1.32 0 2 0 C2 2.64 2 5.28 2 8 C1.34 8 0.68 8 0 8 C0 7.34 0 6.68 0 6 C-0.66 6 -1.32 6 -2 6 C-2 4.68 -2 3.36 -2 2 C-1.34 2 -0.68 2 0 2 C0 1.34 0 0.68 0 0 Z " fill="#C6C5C7" transform="translate(106,84)"/>
<path d="M0 0 C3.3 0 6.6 0 10 0 C10 0.66 10 1.32 10 2 C7.36 2 4.72 2 2 2 C2 2.66 2 3.32 2 4 C1.34 4 0.68 4 0 4 C0 2.68 0 1.36 0 0 Z " fill="#D4D3D6" transform="translate(46,84)"/>
<path d="M0 0 C3.3 0 6.6 0 10 0 C10 0.66 10 1.32 10 2 C7.36 2 4.72 2 2 2 C2 2.66 2 3.32 2 4 C1.34 4 0.68 4 0 4 C0 2.68 0 1.36 0 0 Z " fill="#5F5E60" transform="translate(44,76)"/>
<path d="M0 0 C2.64 0 5.28 0 8 0 C8 0.66 8 1.32 8 2 C6.02 2 4.04 2 2 2 C2 3.32 2 4.64 2 6 C1.34 6 0.68 6 0 6 C0 4.02 0 2.04 0 0 Z " fill="#787778" transform="translate(106,60)"/>
<path d="M0 0 C0.66 0 1.32 0 2 0 C2 0.66 2 1.32 2 2 C3.32 2 4.64 2 6 2 C6 2.66 6 3.32 6 4 C4.68 4 3.36 4 2 4 C2 4.66 2 5.32 2 6 C1.34 6 0.68 6 0 6 C0 5.34 0 4.68 0 4 C-0.66 4 -1.32 4 -2 4 C-2 3.34 -2 2.68 -2 2 C-1.34 2 -0.68 2 0 2 C0 1.34 0 0.68 0 0 Z " fill="#6A696A" transform="translate(52,44)"/>
<path d="M0 0 C1.6254308 0.14095064 3.25034051 0.28792087 4.875 0.4375 C5.77992187 0.51871094 6.68484375 0.59992187 7.6171875 0.68359375 C10 1 10 1 12 2 C12 2.66 12 3.32 12 4 C10.68 4 9.36 4 8 4 C8 3.34 8 2.68 8 2 C5.36 2 2.72 2 0 2 C0 1.34 0 0.68 0 0 Z " fill="#7C7C7C" transform="translate(106,36)"/>
<path d="M0 0 C1.32 0 2.64 0 4 0 C4 0.66 4 1.32 4 2 C4.66 2 5.32 2 6 2 C6 2.66 6 3.32 6 4 C3.36 4 0.72 4 -2 4 C-2 3.34 -2 2.68 -2 2 C-1.34 2 -0.68 2 0 2 C0 1.34 0 0.68 0 0 Z " fill="#AC6374" transform="translate(118,128)"/>
<path d="M0 0 C1.32 0 2.64 0 4 0 C4 1.32 4 2.64 4 4 C3.34 4 2.68 4 2 4 C2 4.66 2 5.32 2 6 C1.34 6 0.68 6 0 6 C0 4.02 0 2.04 0 0 Z " fill="#D97389" transform="translate(114,150)"/>
<path d="M0 0 C1.98 0 3.96 0 6 0 C6 1.32 6 2.64 6 4 C4.68 4 3.36 4 2 4 C2 3.34 2 2.68 2 2 C1.34 2 0.68 2 0 2 C0 1.34 0 0.68 0 0 Z " fill="#515151" transform="translate(62,98)"/>
<path d="M0 0 C0.66 0 1.32 0 2 0 C2 1.32 2 2.64 2 4 C2.66 4 3.32 4 4 4 C4 4.66 4 5.32 4 6 C3.34 6 2.68 6 2 6 C2 6.66 2 7.32 2 8 C1.34 8 0.68 8 0 8 C0 5.36 0 2.72 0 0 Z " fill="#C4C3C4" transform="translate(80,86)"/>
<path d="M0 0 C1.32 0 2.64 0 4 0 C4 0.66 4 1.32 4 2 C3.34 2 2.68 2 2 2 C2 2.66 2 3.32 2 4 C0.02 4 -1.96 4 -4 4 C-4 3.34 -4 2.68 -4 2 C-2.68 2 -1.36 2 0 2 C0 1.34 0 0.68 0 0 Z " fill="#D27B91" transform="translate(70,84)"/>
<path d="M0 0 C1.32 0 2.64 0 4 0 C4 0.66 4 1.32 4 2 C3.34 2 2.68 2 2 2 C2 3.98 2 5.96 2 8 C1.34 8 0.68 8 0 8 C0 5.36 0 2.72 0 0 Z " fill="#B3B1B4" transform="translate(150,78)"/>
<path d="M0 0 C1.98 0 3.96 0 6 0 C6 0.66 6 1.32 6 2 C5.34 2 4.68 2 4 2 C4 3.32 4 4.64 4 6 C3.34 6 2.68 6 2 6 C2 4.68 2 3.36 2 2 C1.34 2 0.68 2 0 2 C0 1.34 0 0.68 0 0 Z " fill="#C86E82" transform="translate(114,78)"/>
<path d="M0 0 C1.32 0 2.64 0 4 0 C4 0.66 4 1.32 4 2 C3.34 2 2.68 2 2 2 C2 3.32 2 4.64 2 6 C1.34 6 0.68 6 0 6 C0 5.34 0 4.68 0 4 C-0.66 4 -1.32 4 -2 4 C-2 3.34 -2 2.68 -2 2 C-1.34 2 -0.68 2 0 2 C0 1.34 0 0.68 0 0 Z " fill="#7A797A" transform="translate(108,72)"/>
<path d="M0 0 C0.66 0 1.32 0 2 0 C2 0.66 2 1.32 2 2 C3.32 2 4.64 2 6 2 C6 2.66 6 3.32 6 4 C3.36 4 0.72 4 -2 4 C-2 3.34 -2 2.68 -2 2 C-1.34 2 -0.68 2 0 2 C0 1.34 0 0.68 0 0 Z " fill="#706F71" transform="translate(80,68)"/>
<path d="M0 0 C1.32 0 2.64 0 4 0 C4 0.66 4 1.32 4 2 C3.34 2 2.68 2 2 2 C2 3.98 2 5.96 2 8 C1.34 8 0.68 8 0 8 C0 5.36 0 2.72 0 0 Z " fill="#464646" transform="translate(104,58)"/>
<path d="M0 0 C0.66 0 1.32 0 2 0 C2 1.98 2 3.96 2 6 C0.68 6 -0.64 6 -2 6 C-2 4.68 -2 3.36 -2 2 C-1.34 2 -0.68 2 0 2 C0 1.34 0 0.68 0 0 Z " fill="#DCD2E4" transform="translate(100,58)"/>
<path d="M0 0 C1.32 0 2.64 0 4 0 C4 0.66 4 1.32 4 2 C3.34 2 2.68 2 2 2 C2 2.66 2 3.32 2 4 C0.02 4 -1.96 4 -4 4 C-4 3.34 -4 2.68 -4 2 C-2.68 2 -1.36 2 0 2 C0 1.34 0 0.68 0 0 Z " fill="#B2B2B2" transform="translate(68,40)"/>
<path d="M0 0 C0.66 0 1.32 0 2 0 C0.95125002 2.62187494 0.35068687 3.79371361 -2.125 5.25 C-2.74375 5.4975 -3.3625 5.745 -4 6 C-4 4.68 -4 3.36 -4 2 C-2.68 2 -1.36 2 0 2 C0 1.34 0 0.68 0 0 Z " fill="#E0DFE0" transform="translate(124,144)"/>
</svg>
